<svg width="76" height="76" viewBox="0 0 76 76" fill="none" xmlns="http://www.w3.org/2000/svg">
<path d="M38.5 28C31.4545 28 25.4377 32.354 23 38.5C25.4377 44.646 31.4545 49 38.5 49C45.5455 49 51.5623 44.646 54 38.5C51.5623 32.354 45.5455 28 38.5 28ZM38.5 45.5C34.6109 45.5 31.4545 42.364 31.4545 38.5C31.4545 34.636 34.6109 31.5 38.5 31.5C42.3891 31.5 45.5455 34.636 45.5455 38.5C45.5455 42.364 42.3891 45.5 38.5 45.5ZM38.5 34.3C36.1609 34.3 34.2727 36.176 34.2727 38.5C34.2727 40.824 36.1609 42.7 38.5 42.7C40.8391 42.7 42.7273 40.824 42.7273 38.5C42.7273 36.176 40.8391 34.3 38.5 34.3Z" fill="#0363F3"/>
<circle cx="38.5" cy="38.5" r="22.5" fill="#0363F3" fill-opacity="0.25"/>
<circle cx="38" cy="38" r="38" fill="#0363F3" fill-opacity="0.12"/>
<path d="M76 38C76 33.0098 75.0171 28.0684 73.1074 23.458C71.1977 18.8477 68.3987 14.6586 64.8701 11.1299C61.3414 7.60132 57.1523 4.80226 52.542 2.89258C47.9316 0.982899 42.9902 -2.1813e-07 38 0V28.7704C39.212 28.7704 40.4122 29.0091 41.532 29.473C42.6518 29.9368 43.6693 30.6167 44.5263 31.4737C45.3834 32.3307 46.0632 33.3482 46.527 34.468C46.9909 35.5878 47.2296 36.788 47.2296 38H76Z" fill="#0363F3" fill-opacity="0.12"/>
</svg>
