<svg width="689" height="683" viewBox="0 0 689 683" fill="none" xmlns="http://www.w3.org/2000/svg">
<path fill-rule="evenodd" clip-rule="evenodd" d="M678.225 143.334C677.692 142.946 676.426 142.809 675.838 142.692C673.39 142.21 670.869 142 668.374 142C660.681 142.012 652.863 142.767 645.298 144.074C640.494 144.903 634.687 147.696 629.909 146.179C621.585 143.537 613.172 143.667 605.274 147.439C598.053 150.888 592.572 157.439 589.373 164.517C588.89 165.586 586.932 169.519 586.378 172.17C586.141 172.712 585.913 173.257 585.708 173.811C585.126 175.384 584.603 176.984 584.118 178.588C583.91 179.272 583.389 180.782 584.008 181.074C583.019 182.901 582.141 184.783 581.411 186.726C579.286 192.378 576.962 198.578 576.215 204.568C575.939 206.786 575.928 209.017 576.185 211.239C576.312 212.338 576.26 214.546 577.004 215.382C578.585 217.154 579.396 214.673 579.218 213.491C577.858 204.485 580.485 196.027 583.598 187.561C585.612 182.087 588.92 177.078 592.626 172.543C595.625 168.871 598.842 165.98 602.953 163.546C607.981 160.569 613.356 158.163 618.681 155.749C622.184 154.161 625.691 152.615 629.291 151.247C630.092 150.942 631.351 150.161 632.239 150.158C634.116 150.152 636.777 151.537 638.59 152.052C644.554 153.748 650.594 155.919 656.758 156.785C660.712 157.341 664.416 156.715 668.113 155.398C668.491 155.264 669.125 154.918 669.901 154.424C672.646 153.368 675.243 152.039 677.504 150.121C678.806 149.017 679.989 147.589 681.067 146.282C681.389 145.892 681.532 145.444 681.537 145.018C681.781 144.891 681.943 144.741 681.98 144.567C682.249 143.281 679.796 143.258 678.225 143.334" fill="#89C5CC"/>
<path fill-rule="evenodd" clip-rule="evenodd" d="M53.2734 250.541C51.7641 251.763 50.2838 253.011 48.8396 254.31C47.7389 255.3 45.7911 256.485 45.3959 257.985C44.9852 259.544 46.2819 261.003 47.3063 261.945C52.7233 266.929 58.8231 270.298 66.3293 270.859C77.8871 271.722 87.9457 268.77 97.9736 262.963C105.018 258.883 109.684 252.849 110.703 244.701C119.092 248.187 127.205 252.993 134.1 258.891C137.502 261.801 140.432 265.025 143.142 268.599C144.878 270.889 146.557 273.215 148.115 275.631C148.792 276.68 149.481 278.542 150.599 279.146C151.912 279.856 153.499 278.743 153.434 277.284C153.379 276.069 152.068 274.66 151.454 273.667C150.436 272.018 149.402 270.379 148.313 268.776C146.551 266.179 144.73 263.62 142.744 261.19C138.28 255.73 132.601 251.221 126.714 247.375C115.42 239.997 103.025 235.349 89.2831 234.955C80.8332 234.713 73.7248 237.6 66.4988 241.911C61.9999 244.595 57.3558 247.235 53.2734 250.541" fill="#DDE3E9"/>
<path fill-rule="evenodd" clip-rule="evenodd" d="M162.883 214.856C154.077 205.787 145.241 196.832 135.403 188.847C129.605 184.141 123.495 179.863 117.511 175.401C118.201 176.006 118.878 176.628 119.539 177.266C117.671 175.998 115.226 175.281 113.246 174.107C111.037 172.798 108.925 171.301 106.854 169.791C102.811 166.845 98.8288 163.843 94.6732 161.051C90.043 157.94 85.2446 155.066 80.5357 152.072C76.5392 149.532 72.4939 146.751 68.2185 144.674C65.8883 143.542 63.5526 142.201 61.2129 141.02C60.4298 140.625 52.4841 135.608 52.5041 135.593C52.9433 135.262 56.9418 137.14 57.5601 137.393C59.3664 138.131 61.0938 139.013 62.8304 139.893C61.8772 138.013 61.1227 136.038 60.712 133.958C60.5851 133.317 59.5685 128.644 60.0887 128.252C60.3485 128.057 62.8835 136.416 63.0133 137.22C63.1188 137.872 63.1033 138.812 63.317 139.431C63.662 140.429 63.6446 140.127 64.4047 140.69C65.7977 141.721 67.6468 142.365 69.1545 143.227C69.9675 143.68 72.4847 145.48 74.0008 145.993C78.5883 148.221 83.2382 151.649 87.597 154.495C86.4531 152.345 85.5825 150.097 84.9477 147.741C84.7966 147.182 83.1675 142.165 83.5628 141.867C84.0075 141.532 87.1117 149.195 87.2956 149.92C87.6372 151.268 87.7081 152.768 88.1357 154.079C88.6052 155.518 90.0699 156.028 91.3902 156.867C96.2475 159.953 100.938 163.232 105.55 166.662C110.583 157.711 104.78 146.903 99.8895 139.393C96.3644 133.98 91.6186 129.34 86.6077 125.289C79.9203 119.882 72.269 115.563 64.6271 111.612C55.7227 107.009 46.0987 104.156 36.0933 102.839C30.8603 102.149 25.5067 102.169 20.2208 102.39C17.6387 102.498 15.1602 102.84 12.6857 103.682C11.5704 104.062 10.4925 104.541 9.4421 105.077C8.64401 105.484 6.71337 105.914 6.25454 106.521C2.47721 111.438 0.544761 116.337 0.839859 122.515C1.11891 128.363 2.96592 134.214 5.47249 139.431C8.26397 145.24 11.8542 150.512 16.5497 154.936C20.1321 158.312 24.1372 161.25 28.1159 164.15C42.267 174.463 60.2082 183.433 78.5363 181.128C84.4692 180.383 90.1121 178.308 95.3854 175.489C96.6279 174.824 97.863 174.152 99.0359 173.368C99.8268 172.839 101.941 170.456 102.736 170.37C103.827 170.251 106.175 172.469 107.198 173.144C114.972 178.275 122.542 183.685 129.953 189.313C137.839 195.301 145.337 201.697 152.615 208.393C155.71 211.242 158.786 214.096 161.791 217.04C162.491 217.725 164.202 220.247 165.471 220.361C166.273 220.434 166.814 219.749 166.7 219.006C166.501 217.715 163.785 215.784 162.883 214.856" fill="#C1DEE2"/>
<path fill-rule="evenodd" clip-rule="evenodd" d="M668.98 179.66C665.57 178.915 661.803 178.972 658.329 179.033C639.695 179.287 621.397 188.109 609.489 202.205C599.351 214.205 596.563 229.125 594.56 244.207C594.362 245.704 594.277 247.192 594.165 248.693C594.141 249.015 594.105 249.302 594.066 249.573C593.279 250.277 592.865 251.098 593.332 252C591.597 255.797 590.129 259.69 588.869 263.706C585.162 275.526 581.392 287.571 583.714 300C584.257 293.16 585.399 286.166 586.764 279.438C586.842 279.052 586.927 278.669 587.015 278.287C587.025 278.247 587.033 278.206 587.042 278.166C587.525 276.106 588.153 274.108 588.917 272.141C588.925 272.119 588.933 272.098 588.941 272.077C589.042 271.818 589.149 271.56 589.255 271.303C589.474 270.77 589.699 270.238 589.937 269.709C590.018 269.528 590.095 269.346 590.17 269.163C591.282 266.437 591.751 263.365 592.748 260.545C592.986 259.904 593.235 259.265 593.496 258.629C593.512 258.592 593.527 258.555 593.543 258.518C594.249 256.807 595.028 255.118 595.853 253.446C596.301 253.11 596.54 252.274 596.927 251.515C597.006 251.365 597.631 250.368 597.817 249.793C598.303 248.854 598.786 247.915 599.275 246.977C599.261 246.983 599.246 246.988 599.231 246.994C599.72 246.093 600.211 245.197 600.698 244.304C600.805 244.108 600.913 243.912 601.021 243.715C601.196 243.402 601.371 243.089 601.545 242.777C603.177 239.856 604.908 236.994 606.705 234.167C607.347 233.158 608.879 231.711 609.173 230.579C609.184 230.536 609.186 230.497 609.193 230.457C613.093 224.979 617.582 219.927 622.967 215.924C622.316 216.628 620.932 219.015 620.567 219.488C619.447 220.935 618.232 222.282 617.013 223.646C614.828 226.089 612.696 228.609 610.801 231.274C607.335 236.148 604.346 241.277 601.519 246.51C601.493 246.54 601.463 246.569 601.438 246.601C600.017 248.352 599.123 250.998 598.101 253.001C602.147 251.127 606.622 249.906 610.774 248.242C614.916 246.583 618.944 244.735 622.834 242.566C628.003 239.682 633.366 236.427 638.25 232.743C643.847 229.271 648.551 224.492 652.703 219.477C657.615 213.543 662.117 207.558 664.901 200.353C666.269 196.813 667.345 193.121 667.983 189.386C668.011 189.224 668.046 189.047 668.085 188.864C668.738 187.574 669.321 186.255 669.811 184.906C670.588 182.766 672.425 180.412 668.98 179.66" fill="#69A1AC"/>
<path fill-rule="evenodd" clip-rule="evenodd" d="M91.0084 204.729C89.9399 203.572 88.7397 202.528 87.3307 201.783C86.9744 201.595 84.3208 200.335 84.148 200.611C83.7454 201.255 90.6875 204.359 91.0084 204.729M103.59 197C103.581 197.049 104.501 198.61 104.752 199.09C105.285 200.111 105.777 201.151 106.24 202.194C105.555 200.353 104.85 198.645 103.59 197M39.2451 209.709C38.3589 209.994 37.2935 208.869 38.4429 208.592C39.373 208.37 39.3274 208.318 39.745 207.568C40.0841 206.96 40.293 206.218 40.5906 205.58C41.2218 204.226 41.9378 202.934 42.8167 201.724C44.7003 199.13 46.9952 196.895 49.5692 195.011C54.0612 191.725 59.0979 188.72 64.4408 187.211C72.9359 184.811 82.6046 184.663 91.113 186.327C96.3825 187.357 101.198 189.149 104.697 193.392C106.446 195.512 107.819 197.996 108.419 200.731C108.576 201.446 108.546 202.241 108.742 202.941C109.044 204.018 108.911 203.731 110.17 203.94C111.544 204.169 112.917 204.402 114.29 204.64C117.885 205.262 121.501 205.922 125.004 206.931C126.157 207.263 127.284 207.669 128.386 208.14C129.219 208.496 132.536 209.615 132.939 210.697C133.61 212.498 131.362 211.682 130.663 211.289C130.051 210.946 129.423 210.625 128.786 210.33C127.181 209.588 125.509 209.013 123.799 208.556C121.951 208.062 120.066 207.693 118.187 207.323C116.436 206.979 114.678 206.666 112.917 206.366C111.939 206.2 110.961 206.038 109.982 205.877C109.647 205.821 109.058 205.532 109.102 205.967C107.044 205.57 104.819 205.627 102.723 205.518C100.156 205.384 97.5788 205.274 95.0028 205.354C93.145 205.412 91.2855 205.534 89.4371 205.784C88.357 205.93 87.2942 206.143 86.2345 206.413C85.6524 206.562 83.357 206.877 83.0399 207.384C83.1761 207.166 85.7094 207.378 86.0319 207.365C87.3216 207.317 88.6012 207.189 89.8861 207.046C92.2707 206.779 94.6562 206.64 97.048 206.66C97.039 207.08 95.4051 207.828 95.0062 208.106C94.112 208.731 93.2555 209.411 92.4564 210.158C91.0487 211.473 89.3632 213.102 88.3895 214.661C88.6765 214.201 90.0921 213.604 90.5945 213.253C91.3993 212.691 92.1876 212.091 92.9336 211.45C93.6223 210.858 94.2649 210.218 94.8968 209.565C95.5288 208.912 96.3864 207.553 97.2167 207.118C97.2668 207.091 97.6288 207.377 97.8344 207.28C98.0416 207.182 98.2999 206.692 98.3525 206.672C99.1254 206.374 100.593 206.745 101.406 206.783C103.513 206.88 105.619 207.007 107.724 207.123C108.377 207.159 108.931 207.01 109.178 207.491C109.44 208.005 108.959 209.354 108.822 209.913C108.314 211.989 107.413 213.85 105.993 215.459C103.335 218.472 100.056 220.48 96.3532 221.824C82.1687 226.97 67.0783 229.031 52.8981 223.678C47.0276 221.461 38.1865 217.501 39.2451 209.709" fill="#89C5CC"/>
<g opacity="0.6">
<path fill-rule="evenodd" clip-rule="evenodd" d="M688.711 452.152C698.361 517.476 464.337 560.085 262.908 530.349C61.4782 500.614 -30.9281 384.493 65.1907 322.62C161.31 260.746 679.061 386.828 688.711 452.152Z" fill="#DDE3E9"/>
</g>
<rect x="126" y="24" width="159" height="302" rx="8" fill="#F2F2F2"/>
<path fill-rule="evenodd" clip-rule="evenodd" d="M205 307C213.284 307 220 300.284 220 292C220 283.716 213.284 277 205 277C196.716 277 190 283.716 190 292C190 300.284 196.716 307 205 307Z" fill="white"/>
<path fill-rule="evenodd" clip-rule="evenodd" d="M192 44C193.105 44 194 43.1046 194 42C194 40.8954 193.105 40 192 40C190.895 40 190 40.8954 190 42C190 43.1046 190.895 44 192 44Z" fill="white"/>
<rect x="199" y="40" width="21" height="4" rx="2" fill="white"/>
<rect x="140" y="52" width="131" height="54" rx="4" fill="white"/>
<g clip-path="url(#clip0)">
<rect x="179" y="68.2" width="73" height="8.1" rx="3" fill="#DDE3E9"/>
<rect x="179" y="81.7" width="49" height="8.1" rx="3" fill="#DDE3E9"/>
</g>
<path fill-rule="evenodd" clip-rule="evenodd" d="M161 91C167.627 91 173 85.6274 173 79C173 72.3726 167.627 67 161 67C154.373 67 149 72.3726 149 79C149 85.6274 154.373 91 161 91Z" fill="#C5CFD6"/>
<rect x="140" y="114" width="131" height="42" rx="4" fill="white"/>
<g clip-path="url(#clip1)">
<rect x="179" y="126.6" width="73" height="6.3" rx="3" fill="#DDE3E9"/>
<rect x="179" y="137.1" width="49" height="6.3" rx="3" fill="#DDE3E9"/>
</g>
<path fill-rule="evenodd" clip-rule="evenodd" d="M161 147C167.627 147 173 141.627 173 135C173 128.373 167.627 123 161 123C154.373 123 149 128.373 149 135C149 141.627 154.373 147 161 147Z" fill="#C5CFD6"/>
<rect x="140" y="164" width="131" height="42" rx="4" fill="white"/>
<g clip-path="url(#clip2)">
<rect x="179" y="176.6" width="73" height="6.3" rx="3" fill="#DDE3E9"/>
<rect x="179" y="187.1" width="49" height="6.3" rx="3" fill="#DDE3E9"/>
</g>
<path fill-rule="evenodd" clip-rule="evenodd" d="M161 197C167.627 197 173 191.627 173 185C173 178.373 167.627 173 161 173C154.373 173 149 178.373 149 185C149 191.627 154.373 197 161 197Z" fill="#AFB9C5"/>
<rect x="140" y="214" width="131" height="42" rx="4" fill="white"/>
<g clip-path="url(#clip3)">
<rect x="179" y="226.6" width="73" height="6.3" rx="3" fill="#DDE3E9"/>
<rect x="179" y="237.1" width="49" height="6.3" rx="3" fill="#DDE3E9"/>
</g>
<path fill-rule="evenodd" clip-rule="evenodd" d="M161 247C167.627 247 173 241.627 173 235C173 228.373 167.627 223 161 223C154.373 223 149 228.373 149 235C149 241.627 154.373 247 161 247Z" fill="#C5CFD6"/>
<path fill-rule="evenodd" clip-rule="evenodd" d="M156.14 268C154.815 268 153.494 268.027 152.171 268.095C151.162 268.148 149.621 267.939 148.768 268.568C147.881 269.221 147.942 270.557 148.081 271.501C148.813 276.493 150.6 280.919 154.339 284.456C160.096 289.901 166.695 292.668 174.504 293.9C179.99 294.766 185.054 293.564 189.092 289.663C192.043 295.139 194.281 301.199 195.404 307.315C195.958 310.333 196.127 313.315 196.03 316.388C195.967 318.356 195.859 320.32 195.648 322.279C195.556 323.13 195.122 324.418 195.455 325.223C195.846 326.167 197.165 326.259 197.757 325.453C198.25 324.783 198.16 323.466 198.261 322.673C198.429 321.355 198.584 320.036 198.695 318.712C198.876 316.569 199.009 314.42 199 312.268C198.977 307.435 197.902 302.583 196.432 297.995C193.612 289.192 189.037 281.369 181.921 275.231C177.545 271.457 172.537 269.929 166.856 269.108C163.318 268.597 159.723 268 156.14 268" fill="#89C5CC"/>
<path fill-rule="evenodd" clip-rule="evenodd" d="M176.571 303C162.272 303 152.642 314.524 148.089 326.502C146.372 331.016 145.97 335.974 145.308 340.714C145.096 342.236 145.175 344.554 144.557 345.909C144.333 346.401 143.819 346.577 144.065 347.247C144.214 347.652 144.505 347.901 144.944 347.981C145.843 348.147 147.115 347.167 147.886 346.781C154.282 343.573 158.484 338.613 161.912 332.545C164.038 328.784 166.194 324.879 167.456 320.75C168.227 318.227 168.676 315.571 168.94 312.954C169.044 311.923 169.144 310.868 169.138 309.832C169.132 308.803 168.653 308.259 168.309 307.364C173.08 305.558 178.466 305.066 183.299 306.937C187.769 308.668 191.482 312.013 193.561 316.216C194.101 317.308 194.518 318.46 194.821 319.636C195.02 320.406 195.029 321.404 195.398 322.1C196.29 323.788 198.168 322.66 197.988 321.089C197.485 316.708 194.979 312.309 191.775 309.263C187.734 305.421 182.258 303 176.571 303" fill="#89C5CC"/>
<rect x="192" y="50" width="159" height="302" rx="8" fill="#DDE3E9"/>
<path fill-rule="evenodd" clip-rule="evenodd" d="M271 333C279.284 333 286 326.284 286 318C286 309.716 279.284 303 271 303C262.716 303 256 309.716 256 318C256 326.284 262.716 333 271 333Z" fill="white"/>
<path fill-rule="evenodd" clip-rule="evenodd" d="M258 70C259.105 70 260 69.1046 260 68C260 66.8954 259.105 66 258 66C256.895 66 256 66.8954 256 68C256 69.1046 256.895 70 258 70Z" fill="white"/>
<rect x="265" y="66" width="21" height="4" rx="2" fill="white"/>
<rect x="206" y="78" width="131" height="54" rx="4" fill="white"/>
<g clip-path="url(#clip4)">
<rect x="215" y="94.2" width="73" height="8.1" rx="3" fill="#DDE3E9"/>
<rect x="215" y="107.7" width="49" height="8.1" rx="3" fill="#DDE3E9"/>
</g>
<path fill-rule="evenodd" clip-rule="evenodd" d="M323 112C326.866 112 330 108.866 330 105C330 101.134 326.866 98 323 98C319.134 98 316 101.134 316 105C316 108.866 319.134 112 323 112Z" fill="#DDE3E9"/>
<path fill-rule="evenodd" clip-rule="evenodd" d="M323 108C324.657 108 326 106.657 326 105C326 103.343 324.657 102 323 102C321.343 102 320 103.343 320 105C320 106.657 321.343 108 323 108Z" fill="#F2F2F2"/>
<rect x="206" y="140" width="131" height="42" rx="4" fill="white"/>
<g clip-path="url(#clip5)">
<rect x="245" y="152.6" width="73" height="6.3" rx="3" fill="#DDE3E9"/>
<rect x="245" y="163.1" width="49" height="6.3" rx="3" fill="#DDE3E9"/>
</g>
<path fill-rule="evenodd" clip-rule="evenodd" d="M227 173C233.627 173 239 167.627 239 161C239 154.373 233.627 149 227 149C220.373 149 215 154.373 215 161C215 167.627 220.373 173 227 173Z" fill="#C5CFD6"/>
<rect x="206" y="190" width="131" height="42" rx="4" fill="white"/>
<g clip-path="url(#clip6)">
<rect x="215" y="202.6" width="73" height="6.3" rx="3" fill="#DDE3E9"/>
<rect x="215" y="213.1" width="49" height="6.3" rx="3" fill="#AFB9C5"/>
</g>
<path fill-rule="evenodd" clip-rule="evenodd" d="M323 218C326.866 218 330 214.866 330 211C330 207.134 326.866 204 323 204C319.134 204 316 207.134 316 211C316 214.866 319.134 218 323 218Z" fill="#DDE3E9"/>
<path fill-rule="evenodd" clip-rule="evenodd" d="M323 214C324.657 214 326 212.657 326 211C326 209.343 324.657 208 323 208C321.343 208 320 209.343 320 211C320 212.657 321.343 214 323 214Z" fill="#F2F2F2"/>
<rect x="206" y="240" width="131" height="42" rx="4" fill="white"/>
<g clip-path="url(#clip7)">
<rect x="245" y="252.6" width="73" height="6.3" rx="3" fill="#DDE3E9"/>
<rect x="245" y="263.1" width="49" height="6.3" rx="3" fill="#DDE3E9"/>
</g>
<path fill-rule="evenodd" clip-rule="evenodd" d="M227 273C233.627 273 239 267.627 239 261C239 254.373 233.627 249 227 249C220.373 249 215 254.373 215 261C215 267.627 220.373 273 227 273Z" fill="#C5CFD6"/>
<rect x="258" y="75" width="335" height="346" rx="8" fill="#F2F2F2"/>
<rect x="507" y="118" width="70" height="81" rx="8" fill="white"/>
<path fill-rule="evenodd" clip-rule="evenodd" d="M542 165C550.837 165 558 157.837 558 149C558 140.163 550.837 133 542 133C533.163 133 526 140.163 526 149C526 157.837 533.163 165 542 165Z" fill="#DDE3E9"/>
<rect x="517" y="169" width="50" height="6" rx="3" fill="#DDE3E9"/>
<rect x="525" y="179" width="34" height="6" rx="3" fill="#DDE3E9"/>
<path d="M258 83C258 78.5817 261.582 75 266 75H585C589.418 75 593 78.5817 593 83V102H258V83Z" fill="#C5CFD6"/>
<path fill-rule="evenodd" clip-rule="evenodd" d="M271 93C273.209 93 275 91.2091 275 89C275 86.7909 273.209 85 271 85C268.791 85 267 86.7909 267 89C267 91.2091 268.791 93 271 93Z" fill="#F2F2F2"/>
<path fill-rule="evenodd" clip-rule="evenodd" d="M283 93C285.209 93 287 91.2091 287 89C287 86.7909 285.209 85 283 85C280.791 85 279 86.7909 279 89C279 91.2091 280.791 93 283 93Z" fill="#F2F2F2"/>
<path fill-rule="evenodd" clip-rule="evenodd" d="M295 93C297.209 93 299 91.2091 299 89C299 86.7909 297.209 85 295 85C292.791 85 291 86.7909 291 89C291 91.2091 292.791 93 295 93Z" fill="#F2F2F2"/>
<rect x="507" y="207" width="70" height="194" rx="8" fill="white"/>
<rect x="525" y="225" width="34" height="26" rx="4" fill="#DDE3E9"/>
<rect x="525" y="259" width="34" height="25" rx="4" fill="#AFB9C5"/>
<rect x="525" y="292" width="34" height="25" rx="4" fill="#DDE3E9"/>
<rect x="525" y="358" width="34" height="25" rx="4" fill="#DDE3E9"/>
<rect x="525" y="325" width="34" height="25" rx="4" fill="#C5CFD6"/>
<rect x="274" y="119" width="225" height="47" rx="4" fill="white"/>
<g clip-path="url(#clip8)">
<rect x="283" y="133.1" width="167" height="7.05" rx="3" fill="#DDE3E9"/>
<rect x="283" y="144.85" width="112.096" height="7.05" rx="3" fill="#DDE3E9"/>
</g>
<path fill-rule="evenodd" clip-rule="evenodd" d="M474.954 149.5C478.82 149.5 481.954 146.366 481.954 142.5C481.954 138.634 478.82 135.5 474.954 135.5C471.088 135.5 467.954 138.634 467.954 142.5C467.954 146.366 471.088 149.5 474.954 149.5Z" fill="#DDE3E9"/>
<path fill-rule="evenodd" clip-rule="evenodd" d="M474.954 145.5C476.611 145.5 477.954 144.157 477.954 142.5C477.954 140.843 476.611 139.5 474.954 139.5C473.297 139.5 471.954 140.843 471.954 142.5C471.954 144.157 473.297 145.5 474.954 145.5Z" fill="#F2F2F2"/>
<rect x="274" y="174" width="225" height="39" rx="4" fill="white"/>
<g clip-path="url(#clip9)">
<rect x="283" y="185.7" width="167" height="5.85" rx="2.925" fill="#DDE3E9"/>
<rect x="283" y="195.45" width="112.096" height="5.85" rx="2.925" fill="#DDE3E9"/>
</g>
<path fill-rule="evenodd" clip-rule="evenodd" d="M474.954 200.5C478.82 200.5 481.954 197.366 481.954 193.5C481.954 189.634 478.82 186.5 474.954 186.5C471.088 186.5 467.954 189.634 467.954 193.5C467.954 197.366 471.088 200.5 474.954 200.5Z" fill="#DDE3E9"/>
<path fill-rule="evenodd" clip-rule="evenodd" d="M474.954 196.5C476.611 196.5 477.954 195.157 477.954 193.5C477.954 191.843 476.611 190.5 474.954 190.5C473.297 190.5 471.954 191.843 471.954 193.5C471.954 195.157 473.297 196.5 474.954 196.5Z" fill="#F2F2F2"/>
<rect x="274" y="221" width="225" height="39" rx="4" fill="white"/>
<g clip-path="url(#clip10)">
<rect x="283" y="232.7" width="167" height="5.85" rx="2.925" fill="#DDE3E9"/>
<rect x="283" y="242.45" width="112.096" height="5.85" rx="2.925" fill="#DDE3E9"/>
</g>
<path fill-rule="evenodd" clip-rule="evenodd" d="M474.954 247.5C478.82 247.5 481.954 244.366 481.954 240.5C481.954 236.634 478.82 233.5 474.954 233.5C471.088 233.5 467.954 236.634 467.954 240.5C467.954 244.366 471.088 247.5 474.954 247.5Z" fill="#DDE3E9"/>
<path fill-rule="evenodd" clip-rule="evenodd" d="M474.954 243.5C476.611 243.5 477.954 242.157 477.954 240.5C477.954 238.843 476.611 237.5 474.954 237.5C473.297 237.5 471.954 238.843 471.954 240.5C471.954 242.157 473.297 243.5 474.954 243.5Z" fill="#AFB9C5"/>
<rect x="274" y="362" width="225" height="39" rx="4" fill="white"/>
<g clip-path="url(#clip11)">
<rect x="283" y="373.7" width="167" height="5.85" rx="2.925" fill="#DDE3E9"/>
<rect x="283" y="383.45" width="112.096" height="5.85" rx="2.925" fill="#DDE3E9"/>
</g>
<path fill-rule="evenodd" clip-rule="evenodd" d="M474.954 388.5C478.82 388.5 481.954 385.366 481.954 381.5C481.954 377.634 478.82 374.5 474.954 374.5C471.088 374.5 467.954 377.634 467.954 381.5C467.954 385.366 471.088 388.5 474.954 388.5Z" fill="#DDE3E9"/>
<path fill-rule="evenodd" clip-rule="evenodd" d="M474.954 384.5C476.611 384.5 477.954 383.157 477.954 381.5C477.954 379.843 476.611 378.5 474.954 378.5C473.297 378.5 471.954 379.843 471.954 381.5C471.954 383.157 473.297 384.5 474.954 384.5Z" fill="#F2F2F2"/>
<rect x="274" y="315" width="225" height="39" rx="4" fill="white"/>
<g clip-path="url(#clip12)">
<rect x="283" y="326.7" width="167" height="5.85" rx="2.925" fill="#DDE3E9"/>
<rect x="283" y="336.45" width="112.096" height="5.85" rx="2.925" fill="#DDE3E9"/>
</g>
<path fill-rule="evenodd" clip-rule="evenodd" d="M474.954 341.5C478.82 341.5 481.954 338.366 481.954 334.5C481.954 330.634 478.82 327.5 474.954 327.5C471.088 327.5 467.954 330.634 467.954 334.5C467.954 338.366 471.088 341.5 474.954 341.5Z" fill="#DDE3E9"/>
<path fill-rule="evenodd" clip-rule="evenodd" d="M474.954 337.5C476.611 337.5 477.954 336.157 477.954 334.5C477.954 332.843 476.611 331.5 474.954 331.5C473.297 331.5 471.954 332.843 471.954 334.5C471.954 336.157 473.297 337.5 474.954 337.5Z" fill="#F2F2F2"/>
<rect x="274" y="268" width="225" height="39" rx="4" fill="white"/>
<g clip-path="url(#clip13)">
<rect x="283" y="279.7" width="167" height="5.85" rx="2.925" fill="#DDE3E9"/>
<rect x="283" y="289.45" width="112.096" height="5.85" rx="2.925" fill="#DDE3E9"/>
</g>
<path fill-rule="evenodd" clip-rule="evenodd" d="M474.954 294.5C478.82 294.5 481.954 291.366 481.954 287.5C481.954 283.634 478.82 280.5 474.954 280.5C471.088 280.5 467.954 283.634 467.954 287.5C467.954 291.366 471.088 294.5 474.954 294.5Z" fill="#DDE3E9"/>
<path fill-rule="evenodd" clip-rule="evenodd" d="M474.954 290.5C476.611 290.5 477.954 289.157 477.954 287.5C477.954 285.843 476.611 284.5 474.954 284.5C473.297 284.5 471.954 285.843 471.954 287.5C471.954 289.157 473.297 290.5 474.954 290.5Z" fill="#F2F2F2"/>
<path fill-rule="evenodd" clip-rule="evenodd" d="M675.986 245.376C672.041 242.701 666.796 242 662.076 242C643.64 242 626.311 248.84 611.341 259.032C603.138 264.616 595.8 271.728 589.322 279.132C585.582 283.407 582.248 288.03 579.887 293.173C578.294 296.644 577.201 300.261 576.46 303.991C575.557 308.537 574.839 313.175 574.515 317.797C574.387 319.617 573.33 329.274 576.356 329.438C576.338 329.676 576.334 329.903 576.353 330.106C569.782 340.38 565.723 352.42 561.958 363.835C558.683 373.769 555.764 383.786 553.87 394.063C551.375 407.592 549.737 421.326 548.958 435.05C548.791 437.999 548.676 440.95 548.577 443.903C548.493 446.422 548.408 448.941 548.325 451.461C548.233 454.284 547.736 457.534 548.185 460.34C548.576 462.784 550.691 462.414 550.785 459.982C550.898 457.045 550.879 454.102 551.008 451.163C551.179 447.262 551.355 443.361 551.546 439.461C552.875 412.369 557.86 385.675 567.061 360.084C570.785 349.728 575.051 339.925 580.535 330.345C585.356 321.922 591.156 313.767 597.084 306.173C602.845 298.792 608.836 291.583 615.895 285.33C621.624 280.256 627.926 275.835 634.404 271.722C642.631 266.498 650.843 261.401 659.755 257.391C664.388 255.307 669.108 253.441 673.777 251.44C674.617 251.081 675.517 250.732 676.325 250.315C679.02 248.925 678.133 246.832 675.986 245.376" fill="#C1DEE2"/>
<path fill-rule="evenodd" clip-rule="evenodd" d="M601.818 340C609.295 340 615.949 340.972 622.838 343.943C628.785 346.508 634.205 349.903 639.467 353.599C646.868 358.798 652.698 364.848 656.779 372.865C659.217 377.654 661.006 384.431 659.368 389.655C657.44 395.807 652.144 400.939 645.169 399.855C640.856 399.185 636.903 396.33 633.625 393.643C629.703 390.428 626.564 386.563 623.972 382.27C619.744 375.267 617.26 367.351 613.668 360.033C611.964 356.56 610.317 353.063 608.275 349.762C607.265 348.128 606.189 346.509 604.656 345.294C603.836 344.644 600.378 343.52 601.7 342.061C582.31 342.315 565.132 357.207 561.409 375.641C561.063 377.359 560.792 379.091 560.505 380.82C560.325 381.911 560.398 385.937 559.422 386.634C557.27 388.172 558.174 383.499 558.267 382.826C558.506 381.087 558.76 379.35 559.027 377.615C560.481 368.181 564.681 359.411 571.685 352.683C579.694 344.99 590.501 340 601.818 340" fill="#89C5CC"/>
<path fill-rule="evenodd" clip-rule="evenodd" d="M62.9379 316.736C81.6043 348.052 103.345 378.374 116.401 412.613C115.875 408.577 115.317 404.545 114.692 400.52C111.38 379.179 107.262 357.994 102.936 336.835C100.733 326.062 98.4023 315.327 96.0123 304.594C94.7268 298.829 93.4572 293.061 92.1452 287.302C91.8275 285.906 91.5544 283.469 91.1566 281C103.845 322.637 116.081 364.305 125.031 406.942C126.205 412.538 127.205 418.124 128.024 423.7C128.304 422.428 128.58 421.156 128.881 419.887C132.503 404.68 137.935 389.594 144.403 375.374C147.495 368.575 151.046 361.924 155.228 355.726C157.836 351.863 163.986 347.271 166.364 343.314C153.355 367.176 148.657 397.032 141.145 422.973C139.312 429.304 137.467 435.624 135.659 441.955C146.987 419.237 164.563 400.571 189 392.483C159.42 412.027 141.678 446.254 129.722 481.26C129.683 481.675 129.636 482.09 129.595 482.506C133.114 475.829 137.545 469.789 143.551 465.56C156.407 456.504 170.667 459.142 183.137 466.91C173.35 460.689 155.663 466.354 147.428 472.677C141.533 477.203 136.495 483.275 132.12 489.2C131.072 490.62 129.641 492.277 128.13 494.044C126.012 507.795 122.56 521.452 117.672 535C118.479 531.111 117.896 524.892 118.12 521.993C118.144 521.679 118.164 521.365 118.188 521.053C117.445 524.019 116.727 526.951 116.036 529.837C117.41 524.331 118.156 518.583 118.739 512.776C118.889 510.281 119.036 507.785 119.19 505.29C119.141 500.553 118.946 495.799 118.616 491.036C117.447 486.408 116.137 482.042 115.056 478.411C111.159 465.31 105.444 452.76 98.4108 441.051C91.9937 430.366 84.3124 420.688 75.4448 411.935C70.6643 407.217 65.6614 402.725 60.7289 398.17C58.9453 396.523 55.7572 392.474 53 390.363C73.0805 401.434 93.7489 413.41 108.398 431.248C106.68 424.653 104.815 418.151 102.842 411.78C92.8311 379.454 80.1913 345.953 62.9379 316.736Z" fill="#DDE3E9"/>
<path fill-rule="evenodd" clip-rule="evenodd" d="M83 494C83 529.899 85.8428 559 124 559C162.157 559 165 529.899 165 494" fill="#C5CFD6"/>
<rect x="508" y="32" width="6" height="25" rx="3" fill="#DDE3E9"/>
<rect x="522" y="16" width="6" height="41" rx="3" fill="#DDE3E9"/>
<rect x="536" y="8" width="6" height="49" rx="3" fill="#DDE3E9"/>
<rect x="550" y="16" width="6" height="41" rx="3" fill="#DDE3E9"/>
<rect x="564" width="6" height="57" rx="3" fill="#C5CFD6"/>
<path fill-rule="evenodd" clip-rule="evenodd" d="M16 306.256C16 295.117 25.002 286 36 286V306.256L22.332 321C18.444 317.395 16 312.107 16 306.256Z" fill="#F2F2F2"/>
<path fill-rule="evenodd" clip-rule="evenodd" d="M35.4707 306H55.668C55.668 311.221 53.5382 316.113 50.1713 319.668C46.4681 323.556 41.1946 326 35.4707 326C30.1983 326 25.3721 323.891 21.668 320.557L35.4707 306Z" fill="#AFB9C5"/>
<path fill-rule="evenodd" clip-rule="evenodd" d="M56 306C56 295.002 46.998 286 36 286V306H56ZM26 286L34 304L16 296C17.78 291.334 21.777 287.78 26 286Z" fill="#C5CFD6"/>
<path fill-rule="evenodd" clip-rule="evenodd" d="M666.766 315.179C664.845 317.219 662.123 318.5 659.095 318.5C653.278 318.5 648.562 313.799 648.562 308C648.562 302.201 653.278 297.5 659.095 297.5V278C642.546 278 629 291.503 629 308C629 324.497 642.546 338 659.095 338C667.788 338 675.645 334.334 681 328.502L666.766 315.179Z" fill="#F2F2F2"/>
<path fill-rule="evenodd" clip-rule="evenodd" d="M659 278V297.5C664.799 297.5 669.5 302.201 669.5 308H689C689 291.503 675.497 278 659 278Z" fill="#AFB9C5"/>
<path fill-rule="evenodd" clip-rule="evenodd" d="M669.097 308C669.097 311.407 667.492 314.435 665 316.391L677.262 332C684.399 326.412 689 317.749 689 308H669.097Z" fill="#C5CFD6"/>
<path fill-rule="evenodd" clip-rule="evenodd" d="M476.051 39.5039C474.573 41.0679 472.479 42.05 470.15 42.05C465.675 42.05 462.048 38.4459 462.048 34C462.048 29.5541 465.675 25.95 470.15 25.95V11C457.42 11 447 21.3523 447 34C447 46.6477 457.42 57 470.15 57C476.837 57 482.88 54.1894 487 49.7182L476.051 39.5039Z" fill="#F2F2F2"/>
<path fill-rule="evenodd" clip-rule="evenodd" d="M470 11V25.95C474.446 25.95 478.05 29.5541 478.05 34H493C493 21.3523 482.648 11 470 11Z" fill="#AFB9C5"/>
<path fill-rule="evenodd" clip-rule="evenodd" d="M478.073 34C478.073 36.5552 476.869 38.8266 475 40.2931L484.196 52C489.55 47.8088 493 41.312 493 34H478.073Z" fill="#C5CFD6"/>
<path fill-rule="evenodd" clip-rule="evenodd" d="M112.007 56.9863C112.003 56.9963 111.999 57.0063 111.993 57.0183C111.999 57.0083 112.007 56.9683 112.007 56.9863" fill="#C5CFD6"/>
<path fill-rule="evenodd" clip-rule="evenodd" d="M111.998 57.0015C111.998 57.0035 111.996 57.0075 111.996 57.0115C111.996 57.0015 112.014 56.9715 111.998 57.0015" fill="#C5CFD6"/>
<path fill-rule="evenodd" clip-rule="evenodd" d="M112.067 56.8323C112.053 56.8723 112.035 56.9103 112.019 56.9503C112.027 56.9303 112.035 56.9143 112.043 56.8943C111.835 57.4143 111.967 57.0763 112.067 56.8323" fill="#C5CFD6"/>
<path fill-rule="evenodd" clip-rule="evenodd" d="M112.022 56.9528C112.014 56.9708 112.006 56.9907 111.998 57.0087C111.94 57.1207 112.022 56.9528 112.022 56.9528" fill="#C5CFD6"/>
<path fill-rule="evenodd" clip-rule="evenodd" d="M111.999 57.002C111.999 57 111.999 57 112.001 56.998C111.999 57 111.999 57 111.999 57.002" fill="#C5CFD6"/>
<path fill-rule="evenodd" clip-rule="evenodd" d="M111.99 57.0164C111.978 57.0404 112.046 56.9244 111.99 57.0164Z" fill="#C5CFD6"/>
<path fill-rule="evenodd" clip-rule="evenodd" d="M111.998 57.002L112.002 56.998C112 57 112 57.002 111.998 57.002" fill="#C5CFD6"/>
<rect x="64" y="5" width="95" height="63" rx="4" fill="#DDE3E9"/>
<path fill-rule="evenodd" clip-rule="evenodd" d="M100 23L72 68H128L100 23Z" fill="#AFB9C5"/>
<path fill-rule="evenodd" clip-rule="evenodd" d="M127.5 35L103 68H152L127.5 35Z" fill="#C5CFD6"/>
<path fill-rule="evenodd" clip-rule="evenodd" d="M138 35C142.971 35 147 30.9706 147 26C147 21.0294 142.971 17 138 17C133.029 17 129 21.0294 129 26C129 30.9706 133.029 35 138 35Z" fill="white"/>
<path fill-rule="evenodd" clip-rule="evenodd" d="M588.993 483.986C588.997 483.996 589.001 484.006 589.007 484.018C589.001 484.008 588.993 483.968 588.993 483.986" fill="#C5CFD6"/>
<path fill-rule="evenodd" clip-rule="evenodd" d="M589.002 484.001C589.002 484.003 589.004 484.007 589.004 484.011C589.004 484.001 588.986 483.971 589.002 484.001" fill="#C5CFD6"/>
<path fill-rule="evenodd" clip-rule="evenodd" d="M588.933 483.832C588.947 483.872 588.965 483.91 588.981 483.95C588.973 483.93 588.965 483.914 588.957 483.894C589.165 484.414 589.033 484.076 588.933 483.832" fill="#C5CFD6"/>
<path fill-rule="evenodd" clip-rule="evenodd" d="M588.978 483.953C588.986 483.971 588.994 483.991 589.002 484.009C589.06 484.121 588.978 483.953 588.978 483.953" fill="#C5CFD6"/>
<path fill-rule="evenodd" clip-rule="evenodd" d="M589.001 484.002C589.001 484 589.001 484 588.999 483.998C589.001 484 589.001 484 589.001 484.002" fill="#C5CFD6"/>
<path fill-rule="evenodd" clip-rule="evenodd" d="M589.01 484.016C589.022 484.04 588.954 483.924 589.01 484.016Z" fill="#C5CFD6"/>
<path fill-rule="evenodd" clip-rule="evenodd" d="M589.002 484.002L588.998 483.998C589 484 589 484.002 589.002 484.002" fill="#C5CFD6"/>
<rect width="142" height="94" rx="4" transform="matrix(-1 0 0 1 660 407)" fill="#DDE3E9"/>
<path fill-rule="evenodd" clip-rule="evenodd" d="M607.274 434L648.329 501H566.219L607.274 434Z" fill="#AFB9C5"/>
<path fill-rule="evenodd" clip-rule="evenodd" d="M564.944 451.946L601.239 501H528.649L564.944 451.946Z" fill="#C5CFD6"/>
<path fill-rule="evenodd" clip-rule="evenodd" d="M549.5 452C542.044 452 536 445.956 536 438.5C536 431.044 542.044 425 549.5 425C556.956 425 563 431.044 563 438.5C563 445.956 556.956 452 549.5 452Z" fill="white"/>
<path fill-rule="evenodd" clip-rule="evenodd" d="M427.065 332.244C420.589 336.147 414.226 338.033 411.24 337.263C403.75 335.333 403.062 307.935 408.857 297.134C414.651 286.333 444.442 281.625 445.943 303.025C446.464 310.453 443.346 317.081 438.738 322.49L447 361H423L427.065 332.244Z" fill="#B28B67"/>
<path fill-rule="evenodd" clip-rule="evenodd" d="M398.224 282.16C398.721 280.413 400.058 278.918 401.86 278.474C402.296 278.366 402.748 278.323 403.197 278.341C403.358 278.347 403.404 278.394 403.479 278.281C403.535 278.198 403.536 277.993 403.559 277.895C403.631 277.59 403.72 277.288 403.831 276.994C404.208 275.992 404.841 275.105 405.605 274.357C407.033 272.959 408.963 271.994 410.968 271.82C412.066 271.724 413.155 271.903 414.193 272.26C414.73 272.444 415.251 272.675 415.758 272.929C415.911 273.006 416.406 273.381 416.559 273.356C416.729 273.33 417.069 272.909 417.207 272.803C418.908 271.498 421.009 270.985 423.128 271C425.52 271.018 427.823 271.138 429.818 272.596C430.241 272.904 430.643 273.242 431.026 273.598C431.228 273.786 431.423 273.98 431.609 274.183C431.722 274.305 431.831 274.43 431.936 274.558C432.115 274.776 432.086 274.847 432.337 274.695C433.297 274.112 434.409 273.839 435.53 273.977C436.195 274.059 436.843 274.258 437.458 274.521C437.667 274.611 438.151 274.968 438.374 274.971C438.596 274.975 439.073 274.644 439.301 274.56C440.533 274.105 441.86 273.993 443.154 274.203C444.489 274.42 445.8 274.952 446.931 275.688C447.475 276.043 447.95 276.435 448.331 276.961C448.496 277.188 448.644 277.429 448.831 277.64C448.94 277.763 449.156 277.89 449.215 278.046C449.18 277.952 450.675 277.376 450.816 277.339C451.568 277.143 452.333 277.183 453.069 277.425C454.453 277.88 455.643 278.902 456.621 279.949C457.123 280.487 457.563 281.081 457.936 281.715C458.115 282.018 458.279 282.33 458.428 282.649C458.501 282.803 458.549 282.996 458.644 283.135C458.768 283.315 458.85 283.318 459.073 283.396C460.206 283.793 461.238 284.465 462.025 285.372C462.82 286.29 463.336 287.421 463.552 288.612C463.565 288.682 463.573 288.972 463.614 289.01C463.67 289.063 463.898 289.04 463.984 289.05C464.282 289.085 464.579 289.137 464.871 289.206C465.41 289.333 465.934 289.521 466.43 289.767C468.364 290.724 469.747 292.517 470.424 294.536C471.135 296.655 471.122 299.082 470.273 301.161C470.136 301.496 469.973 301.822 469.781 302.131C469.664 302.32 469.626 302.32 469.702 302.519C469.787 302.74 469.943 302.954 470.044 303.17C470.374 303.875 470.604 304.622 470.75 305.385C470.989 306.637 471.108 307.952 470.872 309.214C470.762 309.799 470.572 310.372 470.281 310.893C470.132 311.159 469.958 311.412 469.762 311.645C469.661 311.766 469.553 311.882 469.439 311.993C469.375 312.056 469.29 312.111 469.235 312.182C469.101 312.355 469.073 312.213 469.142 312.466C469.239 312.82 469.458 313.169 469.592 313.514C469.731 313.869 469.856 314.229 469.97 314.592C470.202 315.328 470.398 316.077 470.521 316.84C470.756 318.303 470.715 319.862 470.023 321.205C469.727 321.779 469.302 322.283 468.787 322.675C468.535 322.867 468.262 323.032 467.976 323.168C467.829 323.238 467.641 323.268 467.574 323.41C467.501 323.563 467.609 323.867 467.633 324.038C467.846 325.526 467.953 327.089 467.51 328.547C467.103 329.891 466.206 331.077 465.041 331.862C462.781 333.385 459.735 333.299 457.361 332.08C456.742 331.762 456.163 331.367 455.647 330.902C454.331 332.672 451.625 332.616 449.703 332.112C447.308 331.483 445.386 329.818 444.279 327.63C442.765 329.473 439.588 328.875 438.538 326.876C438.281 326.386 438.129 325.847 438.054 325.301C438.014 325.014 438.039 324.725 438.01 324.44C437.972 324.077 437.73 323.725 437.59 323.374C437.319 322.691 437.151 321.985 437.143 321.249C437.14 320.864 437.188 320.489 437.225 320.108C437.258 319.764 437.163 319.444 437.108 319.105C437.723 319.206 438.471 319.041 439.05 318.863C439.617 318.688 440.149 318.228 440.55 317.807C441.481 316.831 442.049 315.551 442.438 314.278C443.292 311.483 442.942 308.129 440.13 306.595C438.82 305.88 434.897 305.883 433.337 306.236C431.696 306.607 429.837 310.226 429.745 310.567C429.689 310.777 429.717 311.038 429.524 311.178C429.099 311.486 428.398 310.951 428.084 310.687C427.543 310.231 427.157 309.624 426.823 309.009C426.095 307.67 425.508 306.233 425.093 304.766C424.773 303.636 424.569 302.47 424.151 301.368C423.735 300.271 423.08 299.291 422.06 298.67C420.952 297.994 419.681 297.638 418.464 297.214C417.257 296.793 416.071 296.279 415.136 295.386C414.93 295.189 414.731 294.981 414.565 294.75C414.435 294.567 414.305 294.218 414.106 294.102C413.797 293.922 413.345 294.39 413.077 294.56C411.757 295.399 410.655 296.568 409.767 297.846C408.883 299.117 408.158 300.339 407.569 301.758C407.132 302.811 406.859 304.159 406.091 305.021C405.748 305.406 403.197 305.639 402.371 305.303C401.545 304.967 400.619 304.094 400.342 303.547C400.058 302.987 399.99 302.371 400.111 301.758C400.183 301.398 400.328 301.061 400.408 300.707C400.475 300.409 400.536 300.128 400.681 299.855C400.955 299.339 401.424 298.967 401.99 298.812C401.401 298.269 400.914 297.62 400.576 296.895C400.226 296.141 399.928 295.224 399.844 294.396C399.776 293.724 399.881 293.028 400.249 292.45C400.635 291.844 401.319 291.449 401.911 291.071C401.007 290.364 400.233 289.504 399.598 288.552C398.361 286.701 397.596 284.368 398.224 282.16Z" fill="#191847"/>
<path fill-rule="evenodd" clip-rule="evenodd" d="M514 486C522.837 486 530 493.163 530 502V594C530 602.837 522.837 610 514 610H399C390.163 610 383 602.837 383 594V502C383 493.163 390.163 486 399 486H514ZM498 514C500.209 514 502 515.791 502 518V578C502 580.209 500.209 582 498 582H415C412.791 582 411 580.209 411 578V518C411 515.791 412.791 514 415 514H498Z" fill="#C5CFD6"/>
<path fill-rule="evenodd" clip-rule="evenodd" d="M337.289 540.58C333.57 553.608 324.304 578.302 311.491 606.66L299.316 603.107C309.967 537.853 318.832 494.651 323.91 481.502C327.265 472.814 352.647 473.832 349.727 491.313C348.502 498.643 343.658 518.273 337.289 540.58ZM387.333 494.361C407.188 498.475 448.356 513.017 460.112 517.664C467.5 520.584 462.737 530.488 456.434 529.622C455.367 529.475 451.591 529.052 445.956 528.422C427.858 526.397 390.588 522.228 362.322 518.16C347.438 516.017 355.444 488.138 370.898 491.088C376.097 492.081 381.627 493.179 387.333 494.361Z" fill="#B28B67"/>
<path fill-rule="evenodd" clip-rule="evenodd" d="M323.131 474.138C325.161 467.514 417.438 444 417.438 444H425V451.047L361.413 483.416C361.497 484.461 361.446 485.565 361.241 486.729C361.7 510.726 351.429 528.653 341.261 546.402C334.611 558.008 328.006 569.539 324.472 582.641L301.111 579.156C301.791 577.416 302.867 569.568 304.339 558.839C308.048 531.785 314.271 486.409 323 474.403C323.03 474.361 323.061 474.32 323.093 474.278C323.104 474.231 323.117 474.185 323.131 474.138Z" fill="#1F28CF"/>
<path fill-rule="evenodd" clip-rule="evenodd" d="M419.717 502.64C425.535 501.476 430.893 500.436 435.477 499.632C465.091 494.438 473.726 478.586 468.62 444H414.058C405.145 446.56 358.826 465.985 334.793 476.316C318.887 483.154 323.901 507.804 332.909 514.219C332.958 514.613 333.12 514.88 333.409 515C367.56 529.154 396.682 528.098 415.383 527.42C423.216 527.136 429.22 526.918 433 527.912L438.923 509.228L419.717 502.64Z" fill="#2B44FF"/>
<path fill-rule="evenodd" clip-rule="evenodd" d="M453.872 516.695C453.918 515.525 454.906 514.589 456.07 514.713C458.194 514.939 461.328 515.38 462.853 516.124C465.284 517.31 469.553 520.395 469.553 520.395C468.178 523.215 444.828 571.088 444.828 571.088C444.828 571.088 437.332 569.878 438.888 565.367C440.443 560.855 441.397 557.835 441.397 557.835L442.385 529.15C442.404 528.587 442.885 528.151 443.447 528.186L447.859 528.463C447.859 528.463 451.621 525.419 452.822 522.955C453.554 521.455 453.796 518.655 453.872 516.695Z" fill="#E4E4E4"/>
<path fill-rule="evenodd" clip-rule="evenodd" d="M314.55 600.284C315.622 599.813 316.896 600.29 317.295 601.391C318.023 603.398 319 606.409 319 608.106C319 610.811 318.099 616 318.099 616C314.961 616 261.697 616 261.697 616C261.697 616 259.498 608.732 264.235 608.152C268.972 607.573 272.105 607.106 272.105 607.106L298.32 595.419C298.835 595.189 299.437 595.43 299.652 595.951L301.337 600.039C301.337 600.039 305.722 602.085 308.463 602.085C310.132 602.085 312.754 601.074 314.55 600.284Z" fill="#E4E4E4"/>
<path fill-rule="evenodd" clip-rule="evenodd" d="M338.628 455.758L366.956 428.123L376.364 444.403L346.907 461.77C339.521 473.405 335.183 478.432 333.893 476.852C332.806 475.519 333.304 474.058 333.763 472.713C334.121 471.665 334.455 470.687 333.996 469.894C332.949 468.082 327.035 469.12 321.465 470.344C315.895 471.568 317.184 468.832 318.367 467.404C323.632 463.156 330.385 459.273 338.628 455.758ZM505.602 495.908C502.672 489.963 492.692 432.02 492.692 432.02L471.795 432.102C471.795 432.102 491.15 494.583 492.692 498.406C494.696 503.372 491.292 510.587 488.984 515.48C488.627 516.237 488.296 516.938 488.016 517.567C491.218 519 492.757 517.268 494.379 515.442C496.211 513.379 498.149 511.197 502.712 513.32C504.475 514.14 506.143 515.109 507.773 516.057C513.403 519.329 518.575 522.336 525.611 517.994C526.727 517.306 527.949 514.715 524.996 512.69C517.638 507.645 507.035 498.815 505.602 495.908Z" fill="#B28B67"/>
<path fill-rule="evenodd" clip-rule="evenodd" d="M433.305 344.332L424.658 342.849C409.77 380.039 383.778 413.831 346.681 444.225L374.714 478.281C411.806 435.005 434.67 390.355 433.305 344.332Z" fill="#191847"/>
<path fill-rule="evenodd" clip-rule="evenodd" d="M471 453H394C394 453 420.759 387.938 420.759 342.461L443.986 339C462.24 368.358 467.395 404.505 471 453Z" fill="#DDE3E9"/>
<path fill-rule="evenodd" clip-rule="evenodd" d="M506 486C497.579 390.996 444.496 339 444.496 339L444.478 339.016C444.475 339.011 444.471 339.005 444.468 339H442.952C440.231 339.094 434.662 339.338 434.662 339.338L429.05 355.377C428.159 384.71 418.649 473.606 418.649 473.606H469.05C468.964 477.682 468.775 481.815 468.469 486H506Z" fill="#2F3676"/>
<path fill-rule="evenodd" clip-rule="evenodd" d="M469.042 474C469.444 456.25 467.869 439.584 465.242 424.502C463.868 442.399 460.997 463.933 455 474H469.042Z" fill="black" fill-opacity="0.1"/>
<path fill-rule="evenodd" clip-rule="evenodd" d="M457.889 443L433 431.429V443H457.889Z" fill="white" fill-opacity="0.2"/>
<defs>
<clipPath id="clip0">
<rect width="73" height="21.6" fill="white" transform="translate(179 68.2)"/>
</clipPath>
<clipPath id="clip1">
<rect width="73" height="16.8" fill="white" transform="translate(179 126.6)"/>
</clipPath>
<clipPath id="clip2">
<rect width="73" height="16.8" fill="white" transform="translate(179 176.6)"/>
</clipPath>
<clipPath id="clip3">
<rect width="73" height="16.8" fill="white" transform="translate(179 226.6)"/>
</clipPath>
<clipPath id="clip4">
<rect width="73" height="21.6" fill="white" transform="translate(215 94.2)"/>
</clipPath>
<clipPath id="clip5">
<rect width="73" height="16.8" fill="white" transform="translate(245 152.6)"/>
</clipPath>
<clipPath id="clip6">
<rect width="73" height="16.8" fill="white" transform="translate(215 202.6)"/>
</clipPath>
<clipPath id="clip7">
<rect width="73" height="16.8" fill="white" transform="translate(245 252.6)"/>
</clipPath>
<clipPath id="clip8">
<rect width="167" height="18.8" fill="white" transform="translate(283 133.1)"/>
</clipPath>
<clipPath id="clip9">
<rect width="167" height="15.6" fill="white" transform="translate(283 185.7)"/>
</clipPath>
<clipPath id="clip10">
<rect width="167" height="15.6" fill="white" transform="translate(283 232.7)"/>
</clipPath>
<clipPath id="clip11">
<rect width="167" height="15.6" fill="white" transform="translate(283 373.7)"/>
</clipPath>
<clipPath id="clip12">
<rect width="167" height="15.6" fill="white" transform="translate(283 326.7)"/>
</clipPath>
<clipPath id="clip13">
<rect width="167" height="15.6" fill="white" transform="translate(283 279.7)"/>
</clipPath>
</defs>
</svg>
