<svg width="522" height="122" viewBox="0 0 522 122" fill="none" xmlns="http://www.w3.org/2000/svg">
<path d="M7.68842 99H15.8255V97.0121H10.0599V85.9091H7.68842V99ZM21.9481 99.1918C24.2364 99.1918 25.8088 98.0732 26.2179 96.3665L24.0574 96.1236C23.7442 96.9545 22.9772 97.3892 21.98 97.3892C20.4843 97.3892 19.4935 96.4048 19.4743 94.7237H26.3138V94.0142C26.3138 90.5689 24.2428 89.054 21.8266 89.054C19.0141 89.054 17.1796 91.1186 17.1796 94.1484C17.1796 97.2294 18.9885 99.1918 21.9481 99.1918ZM19.4807 93.1641C19.551 91.9112 20.4779 90.8565 21.8586 90.8565C23.1881 90.8565 24.083 91.8281 24.0958 93.1641H19.4807ZM30.9167 99.1982C32.4571 99.1982 33.3776 98.4759 33.7995 97.6513H33.8762V99H36.1006V92.429C36.1006 89.8338 33.9848 89.054 32.112 89.054C30.0473 89.054 28.4621 89.9744 27.9508 91.7642L30.1113 92.071C30.3414 91.3999 30.9934 90.8246 32.1248 90.8246C33.1986 90.8246 33.7867 91.3743 33.7867 92.3395V92.3778C33.7867 93.0426 33.09 93.0746 31.3577 93.2599C29.4529 93.4645 27.6312 94.0334 27.6312 96.245C27.6312 98.1754 29.0438 99.1982 30.9167 99.1982ZM31.5175 97.4979C30.5523 97.4979 29.862 97.0568 29.862 96.2067C29.862 95.3182 30.6354 94.9474 31.6709 94.8004C32.2782 94.7173 33.4927 94.5639 33.7931 94.321V95.478C33.7931 96.571 32.911 97.4979 31.5175 97.4979ZM38.2473 99H40.5612V93.228C40.5612 91.9815 41.5009 91.0994 42.7729 91.0994C43.1628 91.0994 43.6486 91.1697 43.8468 91.2337V89.1051C43.6358 89.0668 43.2715 89.0412 43.0158 89.0412C41.8908 89.0412 40.9512 89.6804 40.5932 90.8182H40.4909V89.1818H38.2473V99ZM47.518 93.2472C47.518 91.8281 48.3745 91.0099 49.5954 91.0099C50.7907 91.0099 51.5066 91.7962 51.5066 93.1065V99H53.8205V92.7486C53.8269 90.3963 52.4846 89.054 50.4583 89.054C48.9881 89.054 47.9782 89.7571 47.5307 90.8501H47.4157V89.1818H45.204V99H47.518V93.2472ZM63.1029 99.1982C64.6434 99.1982 65.5639 98.4759 65.9857 97.6513H66.0624V99H68.2869V92.429C68.2869 89.8338 66.1711 89.054 64.2982 89.054C62.2336 89.054 60.6484 89.9744 60.137 91.7642L62.2975 92.071C62.5276 91.3999 63.1796 90.8246 64.311 90.8246C65.3849 90.8246 65.9729 91.3743 65.9729 92.3395V92.3778C65.9729 93.0426 65.2762 93.0746 63.544 93.2599C61.6391 93.4645 59.8174 94.0334 59.8174 96.245C59.8174 98.1754 61.23 99.1982 63.1029 99.1982ZM63.7038 97.4979C62.7386 97.4979 62.0482 97.0568 62.0482 96.2067C62.0482 95.3182 62.8217 94.9474 63.8572 94.8004C64.4644 94.7173 65.6789 94.5639 65.9793 94.321V95.478C65.9793 96.571 65.0972 97.4979 63.7038 97.4979ZM70.5358 99H72.8114V97.4531H72.9456C73.31 98.169 74.0706 99.1726 75.7581 99.1726C78.0721 99.1726 79.8043 97.3381 79.8043 94.1037C79.8043 90.831 78.0209 89.054 75.7518 89.054C74.0195 89.054 73.2972 90.0959 72.9456 90.8054H72.8498V85.9091H70.5358V99ZM72.805 94.0909C72.805 92.1861 73.6232 90.9524 75.1125 90.9524C76.653 90.9524 77.4456 92.2628 77.4456 94.0909C77.4456 95.9318 76.6402 97.2741 75.1125 97.2741C73.636 97.2741 72.805 95.9957 72.805 94.0909ZM85.8741 99.1918C88.7506 99.1918 90.5787 97.1655 90.5787 94.1293C90.5787 91.0866 88.7506 89.054 85.8741 89.054C82.9977 89.054 81.1696 91.0866 81.1696 94.1293C81.1696 97.1655 82.9977 99.1918 85.8741 99.1918ZM85.8869 97.3381C84.2953 97.3381 83.5155 95.919 83.5155 94.1229C83.5155 92.3267 84.2953 90.8885 85.8869 90.8885C87.453 90.8885 88.2328 92.3267 88.2328 94.1229C88.2328 95.919 87.453 97.3381 85.8869 97.3381ZM98.6204 94.8707C98.6204 96.3665 97.553 97.108 96.5302 97.108C95.418 97.108 94.6765 96.3217 94.6765 95.0753V89.1818H92.3626V95.4332C92.3626 97.7919 93.705 99.1278 95.6354 99.1278C97.1055 99.1278 98.141 98.3544 98.5885 97.255H98.6908V99H100.934V89.1818H98.6204V94.8707ZM108.037 89.1818H106.1V86.8295H103.786V89.1818H102.392V90.9716H103.786V96.4304C103.773 98.2777 105.115 99.1854 106.854 99.1342C107.512 99.1151 107.966 98.9872 108.215 98.9041L107.826 97.0952C107.698 97.1271 107.436 97.1847 107.148 97.1847C106.566 97.1847 106.1 96.9801 106.1 96.0469V90.9716H108.037V89.1818ZM0.879007 121H9.01608V119.012H3.25046V107.909H0.879007V121ZM15.0747 121.192C17.9511 121.192 19.7793 119.165 19.7793 116.129C19.7793 113.087 17.9511 111.054 15.0747 111.054C12.1983 111.054 10.3702 113.087 10.3702 116.129C10.3702 119.165 12.1983 121.192 15.0747 121.192ZM15.0875 119.338C13.4959 119.338 12.7161 117.919 12.7161 116.123C12.7161 114.327 13.4959 112.888 15.0875 112.888C16.6536 112.888 17.4334 114.327 17.4334 116.123C17.4334 117.919 16.6536 119.338 15.0875 119.338ZM25.8459 121.192C28.3132 121.192 29.8857 119.728 30.0519 117.644H27.8402C27.6421 118.699 26.8814 119.306 25.8651 119.306C24.4205 119.306 23.4872 118.098 23.4872 116.091C23.4872 114.109 24.4396 112.92 25.8651 112.92C26.9773 112.92 27.6612 113.636 27.8402 114.582H30.0519C29.8921 112.454 28.2301 111.054 25.8331 111.054C22.9567 111.054 21.1413 113.131 21.1413 116.129C21.1413 119.102 22.9119 121.192 25.8459 121.192ZM34.5972 121.198C36.1377 121.198 37.0581 120.476 37.48 119.651H37.5567V121H39.7811V114.429C39.7811 111.834 37.6654 111.054 35.7925 111.054C33.7279 111.054 32.1426 111.974 31.6313 113.764L33.7918 114.071C34.0219 113.4 34.6739 112.825 35.8053 112.825C36.8791 112.825 37.4672 113.374 37.4672 114.339V114.378C37.4672 115.043 36.7705 115.075 35.0382 115.26C33.1334 115.464 31.3117 116.033 31.3117 118.245C31.3117 120.175 32.7243 121.198 34.5972 121.198ZM35.198 119.498C34.2328 119.498 33.5425 119.057 33.5425 118.207C33.5425 117.318 34.3159 116.947 35.3514 116.8C35.9587 116.717 37.1732 116.564 37.4736 116.321V117.478C37.4736 118.571 36.5915 119.498 35.198 119.498ZM46.8305 111.182H44.8937V108.83H42.5798V111.182H41.1864V112.972H42.5798V118.43C42.567 120.278 43.9094 121.185 45.648 121.134C46.3064 121.115 46.7602 120.987 47.0095 120.904L46.6196 119.095C46.4917 119.127 46.2297 119.185 45.942 119.185C45.3604 119.185 44.8937 118.98 44.8937 118.047V112.972H46.8305V111.182ZM48.5857 121H50.8996V111.182H48.5857V121ZM49.7491 109.788C50.4842 109.788 51.085 109.226 51.085 108.536C51.085 107.839 50.4842 107.276 49.7491 107.276C49.0076 107.276 48.4067 107.839 48.4067 108.536C48.4067 109.226 49.0076 109.788 49.7491 109.788ZM57.3817 121.192C60.2582 121.192 62.0863 119.165 62.0863 116.129C62.0863 113.087 60.2582 111.054 57.3817 111.054C54.5053 111.054 52.6772 113.087 52.6772 116.129C52.6772 119.165 54.5053 121.192 57.3817 121.192ZM57.3945 119.338C55.8029 119.338 55.0231 117.919 55.0231 116.123C55.0231 114.327 55.8029 112.888 57.3945 112.888C58.9606 112.888 59.7404 114.327 59.7404 116.123C59.7404 117.919 58.9606 119.338 57.3945 119.338ZM66.1842 115.247C66.1842 113.828 67.0407 113.01 68.2616 113.01C69.4569 113.01 70.1728 113.796 70.1728 115.107V121H72.4867V114.749C72.4931 112.396 71.1508 111.054 69.1245 111.054C67.6543 111.054 66.6444 111.757 66.197 112.85H66.0819V111.182H63.8703V121H66.1842V115.247ZM89.8039 107.909H87.4453V116.832H87.3302L81.1683 107.909H79.0461V121H81.4176V112.083H81.5262L87.6946 121H89.8039V107.909ZM93.9593 107.909H91.3578L95.9664 121H98.894L103.509 107.909H100.901L97.5005 118.213H97.3663L93.9593 107.909ZM105.053 121H110.352C113.35 121 114.82 119.472 114.82 117.433C114.82 115.452 113.414 114.288 112.021 114.218V114.09C113.299 113.79 114.309 112.895 114.309 111.303C114.309 109.354 112.903 107.909 110.065 107.909H105.053V121ZM107.425 119.018V115.183H110.039C111.503 115.183 112.411 116.078 112.411 117.248C112.411 118.29 111.695 119.018 109.975 119.018H107.425ZM107.425 113.477V109.865H109.822C111.215 109.865 111.938 110.6 111.938 111.61C111.938 112.761 111.004 113.477 109.771 113.477H107.425Z" fill="#0E121E"/>
<path d="M208.756 98L209.837 94.772H214.758L215.845 98H218.376L213.761 84.9091H210.834L206.225 98H208.756ZM210.476 92.8672L212.246 87.5938H212.349L214.119 92.8672H210.476ZM222.132 92.2472C222.132 90.8281 222.989 90.0099 224.21 90.0099C225.405 90.0099 226.121 90.7962 226.121 92.1065V98H228.435V91.7486C228.441 89.3963 227.099 88.054 225.073 88.054C223.602 88.054 222.592 88.7571 222.145 89.8501H222.03V88.1818H219.818V98H222.132V92.2472ZM233.432 98.1982C234.973 98.1982 235.893 97.4759 236.315 96.6513H236.392V98H238.616V91.429C238.616 88.8338 236.5 88.054 234.628 88.054C232.563 88.054 230.978 88.9744 230.466 90.7642L232.627 91.071C232.857 90.3999 233.509 89.8246 234.64 89.8246C235.714 89.8246 236.302 90.3743 236.302 91.3395V91.3778C236.302 92.0426 235.606 92.0746 233.873 92.2599C231.969 92.4645 230.147 93.0334 230.147 95.245C230.147 97.1754 231.559 98.1982 233.432 98.1982ZM234.033 96.4979C233.068 96.4979 232.378 96.0568 232.378 95.2067C232.378 94.3182 233.151 93.9474 234.187 93.8004C234.794 93.7173 236.008 93.5639 236.309 93.321V94.478C236.309 95.571 235.427 96.4979 234.033 96.4979ZM243.077 84.9091H240.763V98H243.077V84.9091ZM246.715 101.663C248.517 101.663 249.559 100.729 250.115 99.1889L254.059 88.1946L251.585 88.1818L249.316 95.5966H249.214L246.951 88.1818H244.496L248.057 98.2045L247.859 98.7351C247.418 99.8217 246.753 99.9048 245.743 99.6172L245.206 101.413C245.519 101.548 246.082 101.663 246.715 101.663ZM255.357 98H263.418V96.0824H258.432V95.9993L263.251 89.7607V88.1818H255.523V90.0994H260.42V90.1825L255.357 96.5298V98ZM269.478 98.1918C271.766 98.1918 273.339 97.0732 273.748 95.3665L271.587 95.1236C271.274 95.9545 270.507 96.3892 269.51 96.3892C268.014 96.3892 267.023 95.4048 267.004 93.7237H273.844V93.0142C273.844 89.5689 271.772 88.054 269.356 88.054C266.544 88.054 264.709 90.1186 264.709 93.1484C264.709 96.2294 266.518 98.1918 269.478 98.1918ZM267.01 92.1641C267.081 90.9112 268.008 89.8565 269.388 89.8565C270.718 89.8565 271.613 90.8281 271.625 92.1641H267.01ZM284.189 98.1918C287.065 98.1918 288.893 96.1655 288.893 93.1293C288.893 90.0866 287.065 88.054 284.189 88.054C281.312 88.054 279.484 90.0866 279.484 93.1293C279.484 96.1655 281.312 98.1918 284.189 98.1918ZM284.201 96.3381C282.61 96.3381 281.83 94.919 281.83 93.1229C281.83 91.3267 282.61 89.8885 284.201 89.8885C285.767 89.8885 286.547 91.3267 286.547 93.1229C286.547 94.919 285.767 96.3381 284.201 96.3381ZM296.935 93.8707C296.935 95.3665 295.867 96.108 294.845 96.108C293.732 96.108 292.991 95.3217 292.991 94.0753V88.1818H290.677V94.4332C290.677 96.7919 292.019 98.1278 293.95 98.1278C295.42 98.1278 296.455 97.3544 296.903 96.255H297.005V98H299.249V88.1818H296.935V93.8707ZM301.448 98H303.762V92.228C303.762 90.9815 304.702 90.0994 305.974 90.0994C306.364 90.0994 306.85 90.1697 307.048 90.2337V88.1051C306.837 88.0668 306.472 88.0412 306.217 88.0412C305.092 88.0412 304.152 88.6804 303.794 89.8182H303.692V88.1818H301.448V98ZM198.791 120H206.928V118.012H201.163V106.909H198.791V120ZM212.987 120.192C215.863 120.192 217.692 118.165 217.692 115.129C217.692 112.087 215.863 110.054 212.987 110.054C210.111 110.054 208.282 112.087 208.282 115.129C208.282 118.165 210.111 120.192 212.987 120.192ZM213 118.338C211.408 118.338 210.628 116.919 210.628 115.123C210.628 113.327 211.408 111.888 213 111.888C214.566 111.888 215.346 113.327 215.346 115.123C215.346 116.919 214.566 118.338 213 118.338ZM223.758 120.192C226.225 120.192 227.798 118.728 227.964 116.644H225.752C225.554 117.699 224.794 118.306 223.777 118.306C222.333 118.306 221.399 117.098 221.399 115.091C221.399 113.109 222.352 111.92 223.777 111.92C224.89 111.92 225.573 112.636 225.752 113.582H227.964C227.804 111.454 226.142 110.054 223.745 110.054C220.869 110.054 219.054 112.131 219.054 115.129C219.054 118.102 220.824 120.192 223.758 120.192ZM232.509 120.198C234.05 120.198 234.97 119.476 235.392 118.651H235.469V120H237.693V113.429C237.693 110.834 235.578 110.054 233.705 110.054C231.64 110.054 230.055 110.974 229.544 112.764L231.704 113.071C231.934 112.4 232.586 111.825 233.718 111.825C234.791 111.825 235.379 112.374 235.379 113.339V113.378C235.379 114.043 234.683 114.075 232.95 114.26C231.046 114.464 229.224 115.033 229.224 117.245C229.224 119.175 230.637 120.198 232.509 120.198ZM233.11 118.498C232.145 118.498 231.455 118.057 231.455 117.207C231.455 116.318 232.228 115.947 233.264 115.8C233.871 115.717 235.085 115.564 235.386 115.321V116.478C235.386 117.571 234.504 118.498 233.11 118.498ZM244.743 110.182H242.806V107.83H240.492V110.182H239.099V111.972H240.492V117.43C240.479 119.278 241.822 120.185 243.56 120.134C244.219 120.115 244.672 119.987 244.922 119.904L244.532 118.095C244.404 118.127 244.142 118.185 243.854 118.185C243.273 118.185 242.806 117.98 242.806 117.047V111.972H244.743V110.182ZM246.498 120H248.812V110.182H246.498V120ZM247.661 108.788C248.396 108.788 248.997 108.226 248.997 107.536C248.997 106.839 248.396 106.276 247.661 106.276C246.92 106.276 246.319 106.839 246.319 107.536C246.319 108.226 246.92 108.788 247.661 108.788ZM255.294 120.192C258.17 120.192 259.999 118.165 259.999 115.129C259.999 112.087 258.17 110.054 255.294 110.054C252.418 110.054 250.589 112.087 250.589 115.129C250.589 118.165 252.418 120.192 255.294 120.192ZM255.307 118.338C253.715 118.338 252.935 116.919 252.935 115.123C252.935 113.327 253.715 111.888 255.307 111.888C256.873 111.888 257.653 113.327 257.653 115.123C257.653 116.919 256.873 118.338 255.307 118.338ZM264.096 114.247C264.096 112.828 264.953 112.01 266.174 112.01C267.369 112.01 268.085 112.796 268.085 114.107V120H270.399V113.749C270.405 111.396 269.063 110.054 267.037 110.054C265.567 110.054 264.557 110.757 264.109 111.85H263.994V110.182H261.783V120H264.096V114.247ZM281.394 120C285.383 120 287.748 117.533 287.748 113.442C287.748 109.364 285.383 106.909 281.484 106.909H276.958V120H281.394ZM279.33 117.948V108.961H281.35C284.009 108.961 285.396 110.444 285.396 113.442C285.396 116.452 284.009 117.948 281.279 117.948H279.33ZM292.544 120.198C294.085 120.198 295.005 119.476 295.427 118.651H295.504V120H297.728V113.429C297.728 110.834 295.613 110.054 293.74 110.054C291.675 110.054 290.09 110.974 289.578 112.764L291.739 113.071C291.969 112.4 292.621 111.825 293.752 111.825C294.826 111.825 295.414 112.374 295.414 113.339V113.378C295.414 114.043 294.718 114.075 292.985 114.26C291.081 114.464 289.259 115.033 289.259 117.245C289.259 119.175 290.671 120.198 292.544 120.198ZM293.145 118.498C292.18 118.498 291.49 118.057 291.49 117.207C291.49 116.318 292.263 115.947 293.299 115.8C293.906 115.717 295.12 115.564 295.421 115.321V116.478C295.421 117.571 294.539 118.498 293.145 118.498ZM304.778 110.182H302.841V107.83H300.527V110.182H299.134V111.972H300.527V117.43C300.514 119.278 301.857 120.185 303.595 120.134C304.254 120.115 304.707 119.987 304.957 119.904L304.567 118.095C304.439 118.127 304.177 118.185 303.889 118.185C303.308 118.185 302.841 117.98 302.841 117.047V111.972H304.778V110.182ZM309.358 120.198C310.899 120.198 311.819 119.476 312.241 118.651H312.318V120H314.542V113.429C314.542 110.834 312.426 110.054 310.553 110.054C308.489 110.054 306.904 110.974 306.392 112.764L308.553 113.071C308.783 112.4 309.435 111.825 310.566 111.825C311.64 111.825 312.228 112.374 312.228 113.339V113.378C312.228 114.043 311.531 114.075 309.799 114.26C307.894 114.464 306.073 115.033 306.073 117.245C306.073 119.175 307.485 120.198 309.358 120.198ZM309.959 118.498C308.994 118.498 308.303 118.057 308.303 117.207C308.303 116.318 309.077 115.947 310.112 115.8C310.72 115.717 311.934 115.564 312.235 115.321V116.478C312.235 117.571 311.353 118.498 309.959 118.498Z" fill="#0E121E"/>
<path d="M412.285 89.5078H414.567C414.523 87.2962 412.637 85.7301 409.85 85.7301C407.102 85.7301 405.037 87.277 405.043 89.5909C405.043 91.4702 406.379 92.5504 408.533 93.1065L410.023 93.4901C411.435 93.848 412.369 94.2891 412.375 95.3054C412.369 96.424 411.308 97.1719 409.761 97.1719C408.278 97.1719 407.127 96.5071 407.031 95.1328H404.698C404.794 97.7344 406.731 99.1982 409.78 99.1982C412.918 99.1982 414.74 97.6321 414.746 95.3246C414.74 93.0554 412.867 92.0199 410.898 91.5533L409.671 91.2464C408.597 90.9908 407.434 90.5369 407.447 89.4439C407.453 88.4595 408.335 87.7372 409.818 87.7372C411.231 87.7372 412.164 88.3956 412.285 89.5078ZM420.925 99.1918C423.213 99.1918 424.786 98.0732 425.195 96.3665L423.034 96.1236C422.721 96.9545 421.954 97.3892 420.957 97.3892C419.461 97.3892 418.47 96.4048 418.451 94.7237H425.291V94.0142C425.291 90.5689 423.22 89.054 420.803 89.054C417.991 89.054 416.156 91.1186 416.156 94.1484C416.156 97.2294 417.965 99.1918 420.925 99.1918ZM418.458 93.1641C418.528 91.9112 419.455 90.8565 420.835 90.8565C422.165 90.8565 423.06 91.8281 423.073 93.1641H418.458ZM431.971 89.1818H430.034V86.8295H427.72V89.1818H426.327V90.9716H427.72V96.4304C427.707 98.2777 429.05 99.1854 430.788 99.1342C431.447 99.1151 431.901 98.9872 432.15 98.9041L431.76 97.0952C431.632 97.1271 431.37 97.1847 431.082 97.1847C430.501 97.1847 430.034 96.9801 430.034 96.0469V90.9716H431.971V89.1818ZM437.218 85.9091L441.98 94.1165V99H444.346V94.1165L449.108 85.9091H446.429L443.227 91.7003H443.099L439.897 85.9091H437.218ZM452.959 99.1918C455.836 99.1918 457.664 97.1655 457.664 94.1293C457.664 91.0866 455.836 89.054 452.959 89.054C450.083 89.054 448.255 91.0866 448.255 94.1293C448.255 97.1655 450.083 99.1918 452.959 99.1918ZM452.972 97.3381C451.381 97.3381 450.601 95.919 450.601 94.1229C450.601 92.3267 451.381 90.8885 452.972 90.8885C454.538 90.8885 455.318 92.3267 455.318 94.1229C455.318 95.919 454.538 97.3381 452.972 97.3381ZM465.706 94.8707C465.706 96.3665 464.638 97.108 463.615 97.108C462.503 97.108 461.762 96.3217 461.762 95.0753V89.1818H459.448V95.4332C459.448 97.7919 460.79 99.1278 462.721 99.1278C464.191 99.1278 465.226 98.3544 465.674 97.255H465.776V99H468.02V89.1818H465.706V94.8707ZM470.219 99H472.533V93.228C472.533 91.9815 473.473 91.0994 474.745 91.0994C475.135 91.0994 475.62 91.1697 475.818 91.2337V89.1051C475.608 89.0668 475.243 89.0412 474.987 89.0412C473.862 89.0412 472.923 89.6804 472.565 90.8182H472.463V89.1818H470.219V99ZM490.333 90.0895H492.749C492.346 87.5199 490.122 85.7301 487.226 85.7301C483.8 85.7301 481.23 88.2486 481.23 92.4673C481.23 96.6094 483.685 99.179 487.297 99.179C490.537 99.179 492.858 97.0952 492.858 93.7202V92.1477H487.546V94.0014H490.563C490.525 95.8679 489.278 97.0504 487.309 97.0504C485.117 97.0504 483.615 95.4077 483.615 92.4418C483.615 89.495 485.142 87.8587 487.258 87.8587C488.837 87.8587 489.911 88.7024 490.333 90.0895ZM499.151 99.1918C502.028 99.1918 503.856 97.1655 503.856 94.1293C503.856 91.0866 502.028 89.054 499.151 89.054C496.275 89.054 494.447 91.0866 494.447 94.1293C494.447 97.1655 496.275 99.1918 499.151 99.1918ZM499.164 97.3381C497.572 97.3381 496.792 95.919 496.792 94.1229C496.792 92.3267 497.572 90.8885 499.164 90.8885C500.73 90.8885 501.51 92.3267 501.51 94.1229C501.51 95.919 500.73 97.3381 499.164 97.3381ZM508.465 99.1982C510.005 99.1982 510.926 98.4759 511.348 97.6513H511.424V99H513.649V92.429C513.649 89.8338 511.533 89.054 509.66 89.054C507.596 89.054 506.01 89.9744 505.499 91.7642L507.66 92.071C507.89 91.3999 508.542 90.8246 509.673 90.8246C510.747 90.8246 511.335 91.3743 511.335 92.3395V92.3778C511.335 93.0426 510.638 93.0746 508.906 93.2599C507.001 93.4645 505.179 94.0334 505.179 96.245C505.179 98.1754 506.592 99.1982 508.465 99.1982ZM509.066 97.4979C508.101 97.4979 507.41 97.0568 507.41 96.2067C507.41 95.3182 508.184 94.9474 509.219 94.8004C509.826 94.7173 511.041 94.5639 511.341 94.321V95.478C511.341 96.571 510.459 97.4979 509.066 97.4979ZM518.11 85.9091H515.796V99H518.11V85.9091ZM407.37 111.182H405.331V110.408C405.331 109.641 405.651 109.213 406.513 109.213C406.878 109.213 407.185 109.296 407.376 109.354L407.843 107.564C407.543 107.462 406.884 107.295 406.085 107.295C404.379 107.295 403.017 108.273 403.017 110.255V111.182H401.566V112.972H403.017V121H405.331V112.972H407.37V111.182ZM412.916 121.192C415.792 121.192 417.62 119.165 417.62 116.129C417.62 113.087 415.792 111.054 412.916 111.054C410.039 111.054 408.211 113.087 408.211 116.129C408.211 119.165 410.039 121.192 412.916 121.192ZM412.928 119.338C411.337 119.338 410.557 117.919 410.557 116.123C410.557 114.327 411.337 112.888 412.928 112.888C414.495 112.888 415.274 114.327 415.274 116.123C415.274 117.919 414.495 119.338 412.928 119.338ZM419.404 121H421.718V115.228C421.718 113.982 422.658 113.099 423.93 113.099C424.32 113.099 424.805 113.17 425.004 113.234V111.105C424.793 111.067 424.428 111.041 424.173 111.041C423.048 111.041 422.108 111.68 421.75 112.818H421.648V111.182H419.404V121ZM441.506 107.909H439.147V116.832H439.032L432.87 107.909H430.748V121H433.119V112.083H433.228L439.396 121H441.506V107.909ZM448.154 121.192C450.442 121.192 452.015 120.073 452.424 118.366L450.264 118.124C449.95 118.955 449.183 119.389 448.186 119.389C446.69 119.389 445.7 118.405 445.68 116.724H452.52V116.014C452.52 112.569 450.449 111.054 448.033 111.054C445.22 111.054 443.386 113.119 443.386 116.148C443.386 119.229 445.195 121.192 448.154 121.192ZM445.687 115.164C445.757 113.911 446.684 112.857 448.065 112.857C449.394 112.857 450.289 113.828 450.302 115.164H445.687ZM455.996 111.182H453.542L456.456 116.091L453.465 121H455.919L457.978 117.465L460.055 121H462.49L459.48 116.091L462.439 111.182H459.991L457.978 114.806L455.996 111.182ZM468.952 111.182H467.015V108.83H464.701V111.182H463.308V112.972H464.701V118.43C464.688 120.278 466.031 121.185 467.769 121.134C468.428 121.115 468.882 120.987 469.131 120.904L468.741 119.095C468.613 119.127 468.351 119.185 468.063 119.185C467.482 119.185 467.015 118.98 467.015 118.047V112.972H468.952V111.182ZM477.849 121H480.189L482.816 111.815H482.918L485.539 121H487.878L491.573 107.909H489.022L486.664 117.536H486.549L484.024 107.909H481.703L479.185 117.529H479.064L476.705 107.909H474.154L477.849 121ZM496.28 121.192C498.568 121.192 500.14 120.073 500.549 118.366L498.389 118.124C498.076 118.955 497.309 119.389 496.311 119.389C494.816 119.389 493.825 118.405 493.806 116.724H500.645V116.014C500.645 112.569 498.574 111.054 496.158 111.054C493.346 111.054 491.511 113.119 491.511 116.148C491.511 119.229 493.32 121.192 496.28 121.192ZM493.812 115.164C493.883 113.911 494.809 112.857 496.19 112.857C497.52 112.857 498.414 113.828 498.427 115.164H493.812ZM506.769 121.192C509.058 121.192 510.63 120.073 511.039 118.366L508.879 118.124C508.566 118.955 507.799 119.389 506.801 119.389C505.306 119.389 504.315 118.405 504.296 116.724H511.135V116.014C511.135 112.569 509.064 111.054 506.648 111.054C503.836 111.054 502.001 113.119 502.001 116.148C502.001 119.229 503.81 121.192 506.769 121.192ZM504.302 115.164C504.372 113.911 505.299 112.857 506.68 112.857C508.01 112.857 508.904 113.828 508.917 115.164H504.302ZM512.913 121H515.227V117.702L516.07 116.8L519.075 121H521.842L517.815 115.42L521.619 111.182H518.915L515.387 115.126H515.227V107.909H512.913V121Z" fill="#0E121E"/>
<path d="M65.999 62.069H60.2059H35.999V51H38.999V39C38.999 37.35 37.649 36 35.999 36H26.999C25.349 36 23.999 37.35 23.999 39V51H26.999V66L79.439 65.76V65.5859V64.9655V64.1379V62.069H65.999ZM31.499 33C33.989 33 35.999 30.99 35.999 28.5C35.999 26.01 33.989 24 31.499 24C29.009 24 26.999 26.01 26.999 28.5C26.999 30.99 29.009 33 31.499 33Z" fill="#0464F3"/>
<path d="M72.4023 46.52C74.0623 46.52 75.3923 45.18 75.3923 43.52C75.3923 41.86 74.0623 40.52 72.4023 40.52C70.7423 40.52 69.4023 41.86 69.4023 43.52C69.4023 45.18 70.7423 46.52 72.4023 46.52ZM64.4023 46.52C66.0623 46.52 67.3923 45.18 67.3923 43.52C67.3923 41.86 66.0623 40.52 64.4023 40.52C62.7423 40.52 61.4023 41.86 61.4023 43.52C61.4023 45.18 62.7423 46.52 64.4023 46.52ZM64.4023 48.52C62.0723 48.52 57.4023 49.69 57.4023 52.02V54.52H71.4023V52.02C71.4023 49.69 66.7323 48.52 64.4023 48.52ZM72.4023 48.52C72.1123 48.52 71.7823 48.54 71.4323 48.57C72.5923 49.41 73.4023 50.54 73.4023 52.02V54.52H79.4023V52.02C79.4023 49.69 74.7323 48.52 72.4023 48.52Z" fill="#0464F3" fill-opacity="0.2"/>
<g clip-path="url(#clip0)">
<path d="M63.1644 51.7029C64.9753 51.7029 66.4262 50.2327 66.4262 48.4114C66.4262 46.5902 64.9753 45.12 63.1644 45.12C61.3535 45.12 59.8917 46.5902 59.8917 48.4114C59.8917 50.2327 61.3535 51.7029 63.1644 51.7029ZM54.4371 51.7029C56.2481 51.7029 57.699 50.2327 57.699 48.4114C57.699 46.5902 56.2481 45.12 54.4371 45.12C52.6262 45.12 51.1644 46.5902 51.1644 48.4114C51.1644 50.2327 52.6262 51.7029 54.4371 51.7029ZM54.4371 53.8971C51.8953 53.8971 46.8008 55.1808 46.8008 57.7371V60.48H62.0735V57.7371C62.0735 55.1808 56.979 53.8971 54.4371 53.8971ZM63.1644 53.8971C62.8481 53.8971 62.4881 53.9191 62.1062 53.952C63.3717 54.8736 64.2553 56.1134 64.2553 57.7371V60.48H70.8008V57.7371C70.8008 55.1808 65.7062 53.8971 63.1644 53.8971Z" fill="#0464F3" fill-opacity="0.51"/>
</g>
<rect x="437" y="27" width="36.2069" height="36.2069" rx="6" fill="#CAF3FD"/>
<path d="M472.805 29.8965H444.644C442.431 29.8965 440.621 31.7069 440.621 33.9195V62.0805C440.621 64.2931 442.431 66.1034 444.644 66.1034H472.805C475.018 66.1034 476.828 64.2931 476.828 62.0805V33.9195C476.828 31.7069 475.018 29.8965 472.805 29.8965ZM452.69 58.0575H448.667V43.977H452.69V58.0575ZM460.736 58.0575H456.713V37.9425H460.736V58.0575ZM468.782 58.0575H464.759V50.0115H468.782V58.0575Z" fill="#0363F3"/>
<path d="M464.518 63.0565V66.8276H468.289L479.411 55.7056L475.64 51.9345L464.518 63.0565ZM482.327 52.7893C482.719 52.3971 482.719 51.7636 482.327 51.3714L479.974 49.0183C479.582 48.6261 478.948 48.6261 478.556 49.0183L476.716 50.8585L480.487 54.6296L482.327 52.7893Z" fill="#CAF3FD"/>
<path d="M465.241 65.229V69H469.012L480.134 57.878L476.363 54.1069L465.241 65.229ZM483.051 54.9617C483.443 54.5695 483.443 53.936 483.051 53.5438L480.697 51.1907C480.305 50.7985 479.672 50.7985 479.279 51.1907L477.439 53.0309L481.21 56.802L483.051 54.9617Z" fill="#0E121E"/>
<path d="M448.586 42.931C448.586 41.7312 449.559 40.7586 450.758 40.7586C451.958 40.7586 452.931 41.7312 452.931 42.931V58.1379H448.586V42.931Z" fill="white"/>
<path d="M456.552 38.5862C456.552 37.3864 457.524 36.4138 458.724 36.4138C459.924 36.4138 460.897 37.3864 460.897 38.5862V58.138H456.552V38.5862Z" fill="white"/>
<path d="M464.518 50.1724C464.518 48.9726 465.49 48 466.69 48C467.89 48 468.862 48.9726 468.862 50.1724V58.1379H464.518V50.1724Z" fill="white"/>
<path d="M236 40.1837C236 38.369 237.471 36.8979 239.286 36.8979C241.1 36.8979 242.571 38.369 242.571 40.1837V64.1224H236V40.1837Z" fill="#03C8F3" fill-opacity="0.21"/>
<path d="M244.449 32.6735C244.449 30.8588 245.92 29.3878 247.735 29.3878C249.55 29.3878 251.021 30.8588 251.021 32.6735V64.1225H244.449V32.6735Z" fill="#03C8F3" fill-opacity="0.21"/>
<path d="M252.898 23.2857C252.898 21.4711 254.37 20 256.184 20C257.999 20 259.47 21.4711 259.47 23.2857V64.1224H252.898V23.2857Z" fill="#03C8F3" fill-opacity="0.21"/>
<path d="M237.878 42.0612C237.878 40.2466 239.349 38.7755 241.164 38.7755C242.978 38.7755 244.449 40.2466 244.449 42.0612V66H237.878V42.0612Z" fill="#0363F3"/>
<path d="M246.326 34.551C246.326 32.7364 247.797 31.2653 249.612 31.2653C251.427 31.2653 252.898 32.7364 252.898 34.551V66H246.326V34.551Z" fill="#0363F3"/>
<path d="M254.775 25.1633C254.775 23.3486 256.246 21.8776 258.061 21.8776C259.876 21.8776 261.347 23.3486 261.347 25.1633V66H254.775V25.1633Z" fill="#0363F3"/>
<path d="M269.403 56.9429H268.301L267.91 56.5661C269.278 54.9752 270.101 52.9098 270.101 50.6629C270.101 45.6529 266.04 41.5919 261.03 41.5919C256.02 41.5919 251.959 45.6529 251.959 50.6629C251.959 55.673 256.02 59.734 261.03 59.734C263.277 59.734 265.342 58.9106 266.933 57.543L267.31 57.9337V59.0362L274.288 66L276.367 63.9207L269.403 56.9429ZM261.03 56.9429C257.555 56.9429 254.75 54.1378 254.75 50.6629C254.75 47.188 257.555 44.383 261.03 44.383C264.505 44.383 267.31 47.188 267.31 50.6629C267.31 54.1378 264.505 56.9429 261.03 56.9429Z" fill="black"/>
<path d="M261.353 44.4082C260.49 44.4073 259.635 44.5696 258.838 44.8857C258.04 45.2019 257.315 45.6658 256.704 46.2509C256.094 46.8359 255.609 47.5308 255.278 48.2957C254.947 49.0607 254.776 49.8807 254.775 50.7091C254.774 51.5374 254.943 52.3578 255.273 53.1235C255.602 53.8891 256.086 54.5849 256.695 55.1713C257.305 55.7577 258.029 56.223 258.826 56.5409C259.623 56.8587 260.477 57.0227 261.34 57.0236L261.347 50.7159L261.353 44.4082Z" fill="#1F28CF"/>
<line x1="95" y1="44" x2="212" y2="44" stroke="#0363F3" stroke-width="2" stroke-dasharray="3 3"/>
<line x1="296" y1="44" x2="413" y2="44" stroke="#0363F3" stroke-width="2" stroke-dasharray="3 3"/>
<defs>
<clipPath id="clip0">
<rect width="24.96" height="26.88" fill="white" transform="translate(45.8408 39.36)"/>
</clipPath>
</defs>
</svg>
