<svg width="811" height="610" viewBox="0 0 811 610" fill="none" xmlns="http://www.w3.org/2000/svg">
<path fill-rule="evenodd" clip-rule="evenodd" d="M37.8113 455.573C54.1176 371.6 219.118 419.438 327.29 393.478C435.462 367.517 563.439 246.614 648.137 305.838C732.834 365.063 642.717 508.226 448.458 540.533C254.198 572.84 21.505 539.546 37.8113 455.573Z" fill="#F2F2F2" fill-opacity="0.5"/>
<g opacity="0.5">
<path fill-rule="evenodd" clip-rule="evenodd" d="M258.446 63.7103C258.909 53.7539 259.545 43.8113 259.881 33.8488C260.047 28.9121 260.177 23.9749 260.303 19.0372C260.331 17.9378 260.359 16.8387 260.384 15.7393C260.466 12.004 260.022 11.6984 263.781 11.3669C280.55 9.8867 297.386 9.39609 314.175 8.05688C334.424 6.44175 354.778 5.32651 375.084 4.82663C384.107 4.60404 393.169 4.14311 402.194 4.42366C404.194 4.4858 408.119 3.9655 408.906 5.51988C409.246 6.19135 408.532 8.50205 408.442 9.27692C408.159 11.6975 407.895 14.1265 407.732 16.5591C406.772 30.9065 407.344 45.6156 410.123 59.7455C403.605 56.0706 395.371 52.9094 387.775 53.5368C380.031 54.1763 374.238 58.6507 368.039 62.769C364.533 65.0982 363.352 65.7108 359.854 63.4543C356.839 61.5095 353.987 59.286 351.143 57.1037C346.754 53.7358 342.612 50.084 338.356 46.5533C330.531 40.0612 319.75 30.8207 308.941 33.5414C301.22 35.4853 294.089 39.7292 287.387 43.8827C277.429 50.0534 268.416 57.6101 258.446 63.7103ZM392.65 0.00211682C354.177 0.00211682 315.992 3.73179 277.627 5.74942C273.62 5.95995 269.627 6.27018 265.635 6.65553C262.974 6.91243 256.467 5.83382 254.723 8.10742C253.56 9.62424 254.559 9.85193 254.723 11.2932C254.929 13.1095 254.807 15.2616 254.754 17.1842C254.626 21.8167 254.491 26.4488 254.386 31.0818C253.989 48.5918 253.741 66.0985 254.449 83.6038C254.604 87.4215 255.995 92.7075 255.234 96.4172C254.683 99.103 252.841 100.738 257.089 101.234C261.269 101.723 266.38 100.48 270.564 100.082C274.772 99.6813 278.979 99.2468 283.192 98.8995C301.509 97.3901 320.004 97.6182 338.37 97.1165C356.901 96.6106 375.438 96.5781 393.975 96.5679C401.731 96.5637 410.594 96.9996 418.162 94.8651C420.824 94.1139 421.255 93.7439 420.599 91.1021C420.474 90.6008 419.67 90.4158 419.434 89.5097C419.113 88.2766 419.278 86.7779 419.203 85.4943C418.958 81.3023 418.872 77.1029 418.675 72.9081C418.345 65.8995 417.137 59.0977 416.244 52.1596C415.212 44.147 415.265 36.0116 415.244 27.9466C415.232 23.4731 415.347 19.0145 415.706 14.5536C415.937 11.6924 417.346 7.42066 416.631 4.75243C416.276 3.42388 415.693 2.37032 414.31 1.79856C413.434 1.43593 412.698 1.71972 411.832 1.62791C410.804 1.51893 410.163 1.37472 408.933 1.09602C403.661 -0.0989735 398.022 0.00211682 392.65 0.00211682Z" fill="#69A1AC" fill-opacity="0.5"/>
<path fill-rule="evenodd" clip-rule="evenodd" d="M371.358 19.051C371.355 21.8393 370.92 25.9539 372.206 28.5795C373.836 31.9099 375.876 30.8688 376.417 27.7392C376.726 25.946 376.719 20.6392 376.142 19.051C375.327 16.8029 371.358 15.2717 371.358 19.051Z" fill="#89C5CC" fill-opacity="0.5"/>
<path fill-rule="evenodd" clip-rule="evenodd" d="M376.037 20.1275C373.42 20.2197 365.796 19.5914 364.025 21.6962C360.987 25.3063 366.276 25.9457 368.547 25.7435C371.174 25.5098 379.295 26.0802 381.055 23.9731C383.999 20.4479 378.096 20.0523 376.037 20.1275Z" fill="#89C5CC" fill-opacity="0.5"/>
<path fill-rule="evenodd" clip-rule="evenodd" d="M274.454 113.278C285.962 115.277 282.382 132.823 271.492 128.759C267.698 127.343 262.107 123.251 264.205 118.43C265.771 114.827 270.877 112.935 274.454 113.278ZM269.689 107.822C262.205 109.082 257.088 117.181 259.654 124.246C262.13 131.062 271.519 136.053 278.444 133.603C285.054 131.265 288.352 122.469 286.123 116.035C283.795 109.313 276.209 106.724 269.689 107.822Z" fill="#89C5CC" fill-opacity="0.5"/>
<path fill-rule="evenodd" clip-rule="evenodd" d="M339.688 115.33C336.823 115.568 334.347 117.574 331.464 117.929C328.768 118.261 326.534 117.339 324.01 116.602C320.959 115.711 318.161 115.319 315.043 116.111C312.661 116.716 310.311 118.337 307.836 118.533C302.966 118.917 297.306 113.361 293.504 119.645C291.681 122.658 294.328 124.598 297.054 123.193C299.896 121.729 298.501 121.205 302.027 122.07C304.968 122.791 307.346 123.183 310.292 122.172C312.961 121.256 315.305 119.581 318.205 119.393C321.046 119.209 323.517 120.502 326.232 121.061C329.571 121.747 332.526 121.228 335.689 120.181C338.698 119.185 339.899 118.641 342.936 119.529C344.858 120.092 349.059 121.878 350.93 120.438C354.166 117.949 349.834 117.585 348.128 117.231C345.381 116.662 342.539 115.097 339.688 115.33Z" fill="#89C5CC" fill-opacity="0.5"/>
<path fill-rule="evenodd" clip-rule="evenodd" d="M405.254 113.658C405.277 113.676 405.3 113.693 405.322 113.711C405.3 113.693 405.277 113.676 405.254 113.658ZM402.441 113.07C406.624 113.339 411.148 120.959 405.605 121.229C401.704 121.42 397.339 114.747 402.441 113.07ZM401.854 106.834C388.628 110.528 394.674 129.175 407.432 127.021C413.227 126.043 415.191 119.329 413.275 114.36C412.452 112.225 410.848 110.425 408.931 109.197C407.517 108.291 403.471 106.384 401.854 106.834Z" fill="#89C5CC" fill-opacity="0.5"/>
<path fill-rule="evenodd" clip-rule="evenodd" d="M340.148 145.763C351.787 145.364 363.427 144.965 375.078 144.857C381.392 144.798 387.672 144.908 393.977 145.27C396.773 145.431 399.568 145.586 402.367 145.704C402.849 145.724 403.516 145.691 404.252 145.655C405.984 145.57 408.099 145.466 409.094 145.992C414.66 148.937 403.32 149.26 401.942 149.236C398.855 149.184 395.771 149.032 392.687 148.879C389.992 148.746 387.297 148.613 384.599 148.547C367.292 148.122 349.879 148.899 332.543 149.673C328.569 149.851 324.599 150.028 320.635 150.191C316.426 150.363 312.219 150.475 308.011 150.587C301.997 150.747 295.983 150.906 289.969 151.244C287.673 151.373 285.376 151.51 283.08 151.647C279.791 151.842 276.502 152.038 273.211 152.212C270.635 152.347 268.058 152.479 265.479 152.544C265.014 152.556 264.409 152.62 263.748 152.691L263.748 152.691H263.748C262.149 152.862 260.225 153.067 259.185 152.642C257.935 152.13 256.923 151.415 257.611 149.9C258.193 148.619 260.306 148.772 261.846 148.884C262.267 148.915 262.645 148.942 262.937 148.937C267.861 148.841 272.774 148.565 277.689 148.264C279.487 148.154 281.284 148.041 283.081 147.928L283.082 147.928L283.082 147.928L283.082 147.928L283.082 147.928C292.439 147.339 301.787 146.751 311.167 146.591C320.831 146.426 330.489 146.095 340.148 145.763ZM400.937 222.367L404.283 222.326C406.011 222.477 406.784 224.29 405.675 225.684C404.825 226.752 401.556 226.801 399.425 226.832C398.834 226.841 398.331 226.848 397.991 226.876C392.428 227.323 386.876 227.524 381.296 227.577C369.546 227.689 357.84 228.193 346.109 228.862C334.101 229.546 322.083 229.804 310.064 230.061H310.063C301.221 230.251 292.378 230.44 283.539 230.8C278.477 231.005 273.414 231.159 268.35 231.292C267.806 231.306 267.082 231.384 266.263 231.473C263.064 231.818 258.416 232.32 257.363 229.78C256.428 227.525 257.727 226.487 259.627 226.015C259.327 224.681 259.383 222.804 259.415 221.729C259.424 221.406 259.432 221.156 259.426 221.014C259.379 219.666 259.345 218.319 259.312 216.971C259.274 215.443 259.237 213.916 259.178 212.39C259.125 211.005 259.075 209.618 259.025 208.23C258.829 202.757 258.633 197.272 258.212 191.821C258.017 189.306 257.709 186.819 257.401 184.337C256.91 180.374 256.419 176.422 256.397 172.376C256.393 171.649 256.356 170.738 256.315 169.712C256.105 164.459 255.773 156.155 259.033 153.627C264.782 150.272 263.645 159.955 263.138 164.276C263.055 164.99 262.988 165.557 262.972 165.895C262.642 173.081 263.09 179.95 263.813 187.09C264.302 191.912 264.016 196.718 263.731 201.532C263.629 203.252 263.527 204.972 263.46 206.694C263.427 207.547 263.397 208.398 263.368 209.25C263.278 211.871 263.187 214.489 262.99 217.107C262.968 217.39 262.961 217.934 262.952 218.628C262.926 220.585 262.885 223.743 262.466 225.659C263.358 225.621 264.224 225.63 264.939 225.638C265.394 225.643 265.789 225.648 266.091 225.638C267.463 225.597 268.836 225.557 270.209 225.516C274.262 225.398 278.316 225.279 282.369 225.126C291.937 224.767 301.508 224.646 311.079 224.526C322.383 224.384 333.688 224.242 344.987 223.706C363.609 222.82 382.295 222.593 400.937 222.367ZM404.391 152.119C404.381 164.428 405.333 176.399 406.445 188.658C407.133 196.241 407.684 203.854 408.123 211.456C408.144 211.808 408.14 212.395 408.137 213.131V213.132C408.114 217.335 408.066 226.393 412.221 224.227C415.358 222.59 414.152 213.103 413.485 207.854L413.485 207.853C413.339 206.702 413.218 205.755 413.175 205.139C413.084 203.826 412.994 202.513 412.904 201.2C412.486 195.106 412.069 189.017 411.519 182.929L411.403 181.646C410.767 174.615 410.131 167.59 410.018 160.526C410.009 159.942 410.065 159.128 410.129 158.209C410.312 155.55 410.557 152.009 409.452 150.596C407.898 148.609 404.394 149.197 404.391 152.119Z" fill="#69A1AC" fill-opacity="0.5"/>
<path fill-rule="evenodd" clip-rule="evenodd" d="M340.678 182.294C355.545 175.568 370.585 168.763 386.044 163.918C387.162 163.569 387.868 164.721 387.615 165.688C387.353 166.684 384.935 167.534 383.331 168.098C382.851 168.266 382.444 168.409 382.19 168.523C380.03 169.487 377.865 170.44 375.7 171.392C373.484 172.368 371.267 173.343 369.055 174.331C364.457 176.386 359.855 178.431 355.253 180.476C350.325 182.666 345.396 184.857 340.473 187.058C340.287 187.142 340.1 187.225 339.914 187.309C346.607 189.688 353.264 192.173 359.891 194.733C362.155 195.608 364.412 196.501 366.669 197.394C367.946 197.899 369.223 198.405 370.502 198.907C370.918 199.07 371.642 199.291 372.513 199.557C375.351 200.424 379.742 201.764 380.066 203.118C380.594 205.324 374.533 203.191 372.246 202.385C371.943 202.279 371.706 202.195 371.56 202.148C368.185 201.07 364.851 199.868 361.518 198.667L361.057 198.501C358.416 197.549 355.779 196.588 353.141 195.626C347.99 193.747 342.838 191.869 337.659 190.067C336.927 189.812 336.194 189.558 335.461 189.305C327.149 193.038 318.853 196.808 310.584 200.637C306.151 202.69 301.741 204.791 297.344 206.921C296.384 207.385 295.195 208.104 293.904 208.884C290.809 210.755 287.125 212.981 284.591 212.926C283.233 212.896 282.317 212.604 282.175 210.957C282.029 209.258 284.21 208.366 285.777 207.725C286.153 207.572 286.493 207.433 286.758 207.3C291.458 204.95 296.187 202.659 300.93 200.396C310.35 195.903 319.858 191.59 329.399 187.362C329.454 187.338 329.509 187.313 329.564 187.289C324.272 185.498 318.966 183.75 313.647 182.038C313.116 181.868 312.028 181.566 310.596 181.17C303.836 179.297 289.434 175.308 290.075 172.978C290.81 170.313 304.312 175.185 310.29 177.341C311.41 177.745 312.266 178.054 312.725 178.2C319.872 180.478 326.999 182.82 334.089 185.268C336.282 184.283 338.478 183.289 340.678 182.294Z" fill="#89C5CC" fill-opacity="0.5"/>
<path fill-rule="evenodd" clip-rule="evenodd" d="M276.978 240.832C281.33 241.595 284.399 245.769 283.922 250.141C283.277 256.048 277.389 258.755 271.951 257.984C265.78 257.11 264.482 251.893 267.472 246.874C268.133 245.763 268.895 244.434 270.098 243.848C270.925 243.446 271.979 243.802 272.645 243.478C274.981 242.341 273.577 240.53 276.978 240.832ZM274.997 236.973C269.687 237.652 259.875 243.796 260.372 249.944C260.803 250.657 261.451 250.949 262.316 250.819C262.108 252.151 262.175 253.469 262.519 254.772C263.024 256.464 264.03 257.851 265.378 258.953C268.155 261.222 271.951 261.779 275.409 261.381C281.866 260.639 286.955 256.226 287.318 249.511C287.672 242.956 281.949 236.095 274.997 236.973Z" fill="#89C5CC" fill-opacity="0.5"/>
<path fill-rule="evenodd" clip-rule="evenodd" d="M300.717 244.973C298.335 246.236 294.566 248.175 293.169 250.574C291.693 253.107 293.221 255.878 296.331 254.68C298.8 253.728 300.37 250.706 303.004 249.737C305.328 248.883 306.264 249.318 308.72 250.169C311.251 251.046 313.464 251.894 316.2 251.679C319.639 251.409 322.617 249.415 325.983 248.961C328.817 248.579 331.154 249.682 333.868 250.12C337.017 250.629 339.076 249.437 342.022 248.817C344.026 248.394 347.558 250.112 349.019 249.47C352.306 248.025 348.829 246.258 347.01 245.674C343.945 244.691 342.059 245.559 339.144 246.374C335.979 247.259 334.612 246.594 331.586 245.781C325.465 244.136 320.736 248.113 314.934 247.39C309.562 246.72 306.348 241.992 300.717 244.973Z" fill="#89C5CC" fill-opacity="0.5"/>
<path fill-rule="evenodd" clip-rule="evenodd" d="M400.806 242.035C406.698 247.558 400.079 255.418 393.582 251.003C391.296 249.449 391.259 246.953 393.039 244.721C394.666 242.678 398.242 241.882 400.806 242.035ZM398.622 237.571C393.117 238.642 387.925 241.168 387.427 247.52C386.94 253.719 393.298 256.598 398.639 256.191C410.631 255.278 409.764 235.417 398.622 237.571Z" fill="#89C5CC" fill-opacity="0.5"/>
</g>
<g opacity="0.5">
<path fill-rule="evenodd" clip-rule="evenodd" d="M333.667 281.611C342.679 281.803 352.904 286.79 351.478 297.356C350.435 305.097 343.733 311.38 335.971 311.922C327.629 312.504 318.81 306.102 317.676 297.608C316.401 288.055 324.855 281.42 333.667 281.611ZM329.248 277.31C325.595 277.855 322.104 279.774 318.886 281.492C317.659 282.148 311.433 286.149 316.316 287.143C304.551 306.117 332.239 323.741 347.806 311.41C354.796 305.872 358.476 295.373 353.958 287.155C349.284 278.655 338.201 275.965 329.248 277.31Z" fill="#89C5CC" fill-opacity="0.5"/>
<path fill-rule="evenodd" clip-rule="evenodd" d="M327.094 293.46C327.094 297.003 332.594 297.003 332.594 293.46C332.594 289.916 327.094 289.916 327.094 293.46Z" fill="#89C5CC" fill-opacity="0.5"/>
<path fill-rule="evenodd" clip-rule="evenodd" d="M337.293 294.027C337.293 297.869 343.256 297.869 343.256 294.027C343.256 290.186 337.293 290.186 337.293 294.027Z" fill="#89C5CC" fill-opacity="0.5"/>
<path fill-rule="evenodd" clip-rule="evenodd" d="M330.411 301.625C329.608 304.54 338.759 306.035 339.064 302.661C339.209 301.05 330.969 299.592 330.411 301.625Z" fill="#89C5CC" fill-opacity="0.5"/>
<path fill-rule="evenodd" clip-rule="evenodd" d="M357.234 299.824C367.763 298.56 378.619 299.144 389.199 299.447C391.847 299.524 394.495 299.598 397.143 299.642C398.826 299.67 402.462 300.478 403.932 299.69C409.949 296.463 398.146 294.903 396.474 294.755C385.95 293.889 369.709 293.58 359.154 293.988C356.032 294.11 355.357 300.049 357.234 299.824Z" fill="#89C5CC" fill-opacity="0.5"/>
<path fill-rule="evenodd" clip-rule="evenodd" d="M404.615 352.167C404.705 341.134 405.101 330.028 405.949 319.028C406.294 314.545 406.709 310.068 407.052 305.584C407.214 303.472 407.964 300.515 406.723 298.662C405.444 296.752 402.638 296.355 400.947 298.047C398.923 300.668 399.511 305.065 399.259 308.235C398.872 313.108 398.405 317.978 398.172 322.861C397.723 332.314 397.618 341.931 398.378 351.371C398.737 355.825 399.514 360.171 400.549 364.515C401.02 366.493 404.767 375.301 403.98 376.516C402.759 378.4 393.734 377.688 391.776 377.74C386.752 377.875 381.727 377.963 376.702 378.059C372.4 378.141 368.098 378.2 363.795 378.238C362.087 378.253 352.049 377.949 354.276 380.482C329.376 382.217 304.001 379.32 279.253 378.327C278.003 378.276 275.958 377.921 274.07 377.819C273.844 376.907 273.658 376.092 273.612 375.526C273.287 371.549 273.202 367.558 272.849 363.582C272.204 356.306 270.953 349.104 270.209 341.842C269.466 334.587 269.541 327.31 269.108 320.037C269.034 318.79 268.859 308.582 266.283 306.102C267.504 306.565 269.474 306.626 270.608 306.534C279.788 305.793 288.901 304.198 298.003 302.829C300.607 302.438 306.516 302.715 308.676 301.414C310.545 300.286 311.285 296.336 308.033 296.656C298.957 297.628 289.931 299.137 280.927 300.622C278.518 301.019 276.116 301.444 273.714 301.878C272.11 302.168 267.876 302.146 266.632 303.113C265.121 304.287 264.961 305.086 265.473 305.617C264.761 305.421 263.908 305.729 262.883 306.754C260.945 309.276 262.767 315.487 262.998 318.443C263.275 321.99 263.412 325.543 263.573 329.097C263.885 335.973 264.605 342.754 265.712 349.547C266.951 357.158 268.006 364.8 269.249 372.408C269.572 374.389 269.994 376.321 270.533 378.234C267.184 379.947 269.461 382.671 272.117 383.154C272.136 383.157 272.155 383.16 272.174 383.164C273.002 385.183 274.16 387.053 275.064 384.348C275.133 384.14 275.166 383.885 275.174 383.598C282.033 384.374 289.573 383.892 296.326 384.168C310.954 384.766 325.672 385.663 340.315 385.208C346.112 385.028 351.926 384.513 357.674 383.74C361.042 383.286 364.423 382.746 367.737 381.995C367.974 381.941 368.335 381.885 368.752 381.816C368.82 381.814 368.889 381.812 368.953 381.811C374.028 381.735 379.098 381.599 384.168 381.388C388.424 381.211 392.699 381.12 396.941 380.719C399.576 380.47 405.145 380.516 406.762 377.866C408.233 375.457 405.774 369.25 405.425 366.544C404.811 361.778 404.576 356.968 404.615 352.167Z" fill="#C1DEE2" fill-opacity="0.5"/>
<path fill-rule="evenodd" clip-rule="evenodd" d="M353.19 320.312C349.135 320.659 345.386 322.563 341.294 322.587C337.86 322.606 334.478 321.58 331.024 321.732C326.974 321.908 324.745 324.528 321.196 325.405C318.371 326.102 316.591 323.939 314.107 322.983C310.969 321.775 308.652 322.399 305.962 324.226C303.987 325.568 299.379 328.581 299.414 331.297C299.52 339.523 309.117 328.16 311.052 328.022C313.622 327.839 316.494 330.769 319.229 330.936C322.845 331.157 325.164 328.826 328.493 327.977C331.861 327.118 335.5 328.17 338.876 328.497C342.728 328.869 346.098 328.011 349.824 327.092C353.435 326.201 356.512 326.248 360.181 326.996C362.658 327.501 368.827 330.437 369.91 326.662C371.385 321.521 356.025 320.071 353.19 320.312Z" fill="#89C5CC" fill-opacity="0.5"/>
<path fill-rule="evenodd" clip-rule="evenodd" d="M354.425 336C346.117 336.806 337.759 337.514 329.413 337.74C325.798 337.838 311.901 336.289 313.134 340.882C314.19 344.821 333.101 342.341 336.952 342.041C341.204 341.711 345.45 341.249 349.681 340.714C351.18 340.524 354.802 340.72 355.86 339.463C356.868 338.263 356.371 335.805 354.425 336Z" fill="#89C5CC" fill-opacity="0.5"/>
<path fill-rule="evenodd" clip-rule="evenodd" d="M297.11 356.919C296.921 356.999 296.921 356.999 297.11 356.919V356.919ZM298.863 356.895C300.934 356.83 300.49 355.737 302.556 356.307C303.509 356.569 303.607 356.18 304.346 357.09C305.787 358.867 304.43 362.737 303.009 364.169C297.748 369.471 291.434 357.131 298.863 356.895ZM298.863 351.693C284.46 352.177 290.486 374.426 303.022 369.884C308.199 368.009 311.453 359.559 308.408 354.81C306.927 352.5 305.038 352.089 302.556 351.929C301.98 351.892 301.255 352.729 300.896 352.691C300.041 352.601 300.121 351.646 298.863 351.693Z" fill="#89C5CC" fill-opacity="0.5"/>
<path fill-rule="evenodd" clip-rule="evenodd" d="M333.307 357.681C333.05 357.602 337.854 358.999 337.329 358.452C338.45 359.619 336.942 362.378 335.673 362.859C332.6 364.026 330.876 359.247 333.307 357.681ZM335.439 351.648C330.929 352.287 327.449 354.165 326.832 359.18C326.263 363.809 329.391 368.497 334.324 368.587C345.078 368.784 345.405 350.258 335.439 351.648Z" fill="#89C5CC" fill-opacity="0.5"/>
<path fill-rule="evenodd" clip-rule="evenodd" d="M384.528 357.884C385.158 366.104 376.634 358.58 384.528 357.884V357.884ZM380.87 349.09C380.124 350.364 380.76 351.716 381.885 352.457C371.831 354.582 374.108 369.711 384.339 367.476C389.542 366.339 390.498 360.868 389.723 356.351C389.354 354.203 384.001 343.736 380.87 349.09Z" fill="#89C5CC" fill-opacity="0.5"/>
</g>
<g opacity="0.5">
<path fill-rule="evenodd" clip-rule="evenodd" d="M565.587 315.966C565.584 321.644 565.297 327.44 566.343 333.051C566.66 334.749 566.91 338.002 568.702 338.884C570.502 339.769 572.247 338.774 572.694 336.929C573.216 334.783 572.071 331.57 571.956 329.317C571.796 326.238 571.786 323.156 571.784 320.074C571.783 317.848 572.516 314.267 569.888 313.122C567.934 312.271 565.587 313.854 565.587 315.966Z" fill="#C1DEE2" fill-opacity="0.5"/>
<path fill-rule="evenodd" clip-rule="evenodd" d="M655.353 306.985C636.541 308.874 617.457 309.266 598.576 310.251C589.849 310.706 579.301 310.126 571.079 313.504C569.552 314.131 564.084 317.623 568.523 319.045C569.907 319.488 571.313 317.998 572.449 317.498C574.341 316.667 576.532 316.41 578.55 316.086C595.706 313.331 613.651 313.81 630.984 312.523C635.425 312.193 639.869 311.853 644.301 311.417C647.467 311.106 654.122 308.823 657.044 309.991C662.038 311.985 661.921 324.945 662.019 329.402C662.071 331.707 659.833 339.982 664.281 339.143C667.84 338.471 666.552 329.875 666.274 327.524C665.546 321.361 664.305 306.079 655.353 306.985Z" fill="#C1DEE2" fill-opacity="0.5"/>
<path fill-rule="evenodd" clip-rule="evenodd" d="M662.291 338.844C645.95 340.319 629.233 338.872 612.824 339.452C604.224 339.757 595.632 340.241 587.03 340.525C583.31 340.648 579.586 340.654 575.864 340.68C574.084 340.692 565.983 341.771 570.994 345.301C573.213 346.863 580.285 345.605 582.831 345.574C586.656 345.529 590.478 345.37 594.3 345.22C603.152 344.874 611.999 344.395 620.856 344.155C629.328 343.926 637.805 343.877 646.277 343.647C650.492 343.533 654.765 343.403 658.943 342.788C659.886 342.649 662.948 342.539 663.603 341.487C664.222 340.493 663.787 338.7 662.291 338.844Z" fill="#89C5CC" fill-opacity="0.5"/>
<path fill-rule="evenodd" clip-rule="evenodd" d="M581.98 326.575C581.892 326.783 581.892 326.783 581.98 326.575V326.575ZM589.057 324.424C589.315 324.534 589.315 324.534 589.057 324.424V324.424ZM588.725 324.365C592.539 328.252 586.674 332.891 583.102 329.098C579.31 325.072 586.27 324.378 588.725 324.365ZM584.681 318.484C571.545 320.821 576.196 338.328 588.464 335.798C593.85 334.687 596.93 329.261 595.077 324.049C594.352 322.013 592.774 319.778 590.575 319.136C589.479 318.816 588.509 319.319 587.465 319.202C586.469 319.09 585.917 318.261 584.681 318.484Z" fill="#C1DEE2" fill-opacity="0.5"/>
<path fill-rule="evenodd" clip-rule="evenodd" d="M634.952 323.411C627.031 323.436 619.108 323.773 611.188 323.923C608.759 323.969 602.516 322.882 602.506 326.711C602.495 330.803 609.45 329.292 611.765 329.237C619.62 329.049 627.496 328.705 635.321 327.957C637.297 327.768 644.139 328.094 644.132 325.406C644.125 322.559 636.548 323.411 634.952 323.411Z" fill="#C1DEE2" fill-opacity="0.5"/>
<path fill-rule="evenodd" clip-rule="evenodd" d="M653.869 350.12C634.279 350.645 614.718 350.828 595.144 351.831C587.822 352.206 580.51 352.485 573.178 352.485C571.766 352.485 568.922 351.938 567.593 352.827C563.986 355.24 568.094 357.31 570.444 357.44C586.525 358.333 602.838 356.112 618.909 355.61C628.318 355.317 637.729 355.23 647.132 354.752C649.697 354.621 652.262 354.469 654.823 354.271C656.296 354.157 660.191 354.469 661.382 353.608C666.579 349.846 655.621 350.072 653.869 350.12Z" fill="#89C5CC" fill-opacity="0.5"/>
<path fill-rule="evenodd" clip-rule="evenodd" d="M563.986 359.698C563.801 364.777 563.782 369.768 564.447 374.819C564.708 376.807 564.828 379.062 567.158 379.567C569.274 380.026 570.347 378.425 570.785 376.651C571.855 372.318 570.914 366.082 570.901 361.581C570.895 359.355 570.893 356.865 568.143 356.361C566.045 355.977 564.066 357.493 563.986 359.698Z" fill="#89C5CC" fill-opacity="0.5"/>
<path fill-rule="evenodd" clip-rule="evenodd" d="M674.634 371.943C642.923 373.614 611.253 375.073 579.518 376.415C577.043 376.519 557.817 376.31 564.539 383.015C566.615 385.085 571.964 383.683 574.648 383.551C578.683 383.353 582.72 383.201 586.754 382.996C602.751 382.182 618.789 381.962 634.774 381.048C643.571 380.546 652.347 379.759 661.098 378.734C665.26 378.247 670.427 378.298 674.325 376.666C676.33 375.827 678.495 371.738 674.634 371.943Z" fill="#89C5CC" fill-opacity="0.5"/>
<path fill-rule="evenodd" clip-rule="evenodd" d="M656.401 346.178C653.99 348.58 655.23 353.318 655.412 356.287C655.661 360.372 655.965 364.46 656.475 368.523C656.807 371.162 656.632 375.27 658.04 377.549C659.688 380.219 663.319 379.924 664.809 377.344C666.128 375.064 665.461 370.264 665.426 367.736C665.379 364.241 665.162 360.739 664.954 357.251C664.781 354.335 665.441 349.662 663.837 347.167C662.208 344.631 658.661 343.93 656.401 346.178Z" fill="#89C5CC" fill-opacity="0.5"/>
<path fill-rule="evenodd" clip-rule="evenodd" d="M583.917 364.817C583.634 365.035 583.634 365.035 583.917 364.817V364.817ZM589.549 364.111C594.805 365.168 586.307 371.305 583.621 367.093C583.202 366.435 582.983 365.626 583.657 365.054C584.271 364.532 584.657 365.457 585.238 365.208C586.238 364.78 588.482 364.072 589.549 364.111ZM588.824 359.074C585.236 359.358 580.303 359.579 578.527 363.176C576.141 368.007 580.221 372.739 584.942 373.474C589.485 374.181 596.267 371.665 596.631 366.367C596.924 362.095 592.861 358.746 588.824 359.074Z" fill="#89C5CC" fill-opacity="0.5"/>
<path fill-rule="evenodd" clip-rule="evenodd" d="M618.782 361.629C615.067 361.688 607.766 360.59 604.53 362.401C601.328 364.192 602.756 367.382 605.677 368.146C607.608 368.65 610.764 367.836 612.774 367.754C615.419 367.647 618.065 367.623 620.711 367.587C625.162 367.527 629.61 367.577 634.061 367.577C638.606 367.577 643.229 367.702 647.767 367.368C653.509 366.945 653.354 362.646 647.739 362.108C638.2 361.195 628.351 361.478 618.782 361.629Z" fill="#89C5CC" fill-opacity="0.5"/>
<path fill-rule="evenodd" clip-rule="evenodd" d="M609.293 409.778C609.293 411.821 611.105 409.778 611.092 409.778C611.105 409.778 609.293 407.735 609.293 409.778Z" fill="#89C5CC" fill-opacity="0.5"/>
<path fill-rule="evenodd" clip-rule="evenodd" d="M568.297 393.335C568.414 399.273 568.491 405.216 568.744 411.148C568.825 413.024 568.288 416.687 570.561 417.644C573.092 418.708 573.879 416.055 574.171 414.257C575.094 408.56 574.189 402.056 574.1 396.293C574.07 394.357 574.489 391.663 572.291 390.698C570.498 389.911 568.261 391.372 568.297 393.335Z" fill="#89C5CC" fill-opacity="0.5"/>
<path fill-rule="evenodd" clip-rule="evenodd" d="M665.936 393.429C666.086 393.782 666.086 393.782 665.936 393.429V393.429ZM666.147 393.368C666.269 393.419 666.761 393.625 666.147 393.368V393.368ZM618.184 388.569C609.069 388.712 599.948 388.82 590.839 389.211C586.952 389.377 583.02 389.512 579.145 389.878C576.401 390.138 569.585 390.246 567.805 392.488C564.132 397.117 571.921 395.855 573.598 395.479C576.651 394.794 579.767 394.575 582.886 394.411C589.653 394.054 596.424 393.863 603.199 393.727C621.574 393.357 639.962 393.413 658.34 393.33C660.119 393.322 663.335 392.607 664.979 393.326C666.625 394.048 666.532 395.821 666.703 397.881C666.931 400.62 665.123 405.842 666.5 408.146C668.636 411.721 671.742 408.686 672.217 406.079C672.873 402.478 671.833 398.154 670.815 394.712C669.379 389.855 667.386 389.662 662.688 389.282C657.2 388.839 651.731 388.57 646.224 388.519C636.88 388.434 627.528 388.424 618.184 388.569Z" fill="#89C5CC" fill-opacity="0.5"/>
<path fill-rule="evenodd" clip-rule="evenodd" d="M654.234 413.113C634.465 415.408 614.133 414.056 594.258 414.137C589.425 414.157 584.587 414.195 579.759 414.43C577.208 414.553 571.163 413.85 569.416 415.817C565.733 419.965 572.367 420.568 574.789 420.396C579.686 420.048 584.595 419.889 589.504 419.851C606.797 419.718 624.187 420.524 641.466 419.671C648.705 419.314 655.782 418.076 662.887 416.692C664.461 416.385 675.236 414.337 669.092 411.882C665.46 410.431 658.049 412.667 654.234 413.113Z" fill="#89C5CC" fill-opacity="0.5"/>
<path fill-rule="evenodd" clip-rule="evenodd" d="M596.513 405.52C596.375 405.698 596.375 405.698 596.513 405.52V405.52ZM596.38 405.49C596.333 405.617 596.188 405.931 596.38 405.49V405.49ZM595.133 403.881C595.162 403.918 595.279 404.069 595.133 403.881V403.881ZM595.085 403.869C595.561 404.437 595.882 405.071 596.046 405.771C591.95 406.88 590.372 403.567 595.085 403.869ZM594.826 403.714C594.827 403.715 595.403 403.957 594.826 403.714V403.714ZM588.097 398.777C585.446 402.079 583.258 405.926 586.563 409.697C589.518 413.068 595.464 413.503 599.214 411.252C603.078 408.933 602.744 404.051 600.049 400.864C598.314 398.812 596.907 398.869 594.389 398.534C592.675 398.306 589.552 396.973 588.097 398.777Z" fill="#89C5CC" fill-opacity="0.5"/>
<path fill-rule="evenodd" clip-rule="evenodd" d="M615.5 404.887C615.5 409.283 634.481 407.391 637.858 407.387C640.687 407.382 657.79 408.943 656.563 404.419C655.554 400.702 638.707 402.549 635.119 402.544C632.017 402.54 615.5 400.41 615.5 404.887Z" fill="#89C5CC" fill-opacity="0.5"/>
</g>
<g opacity="0.5">
<path fill-rule="evenodd" clip-rule="evenodd" d="M367.7 446.074C377.206 447.455 387.094 451.925 387.011 462.99C386.941 472.293 379.139 482.195 369.119 481.639C360.103 481.139 351.612 471.279 350.483 462.829C349.898 458.451 350.993 453.737 353.568 450.136C356.942 445.417 362.296 445.425 367.7 446.074ZM363.21 440.06C356.334 440.098 351.304 442.585 347.049 447.834C345.523 449.717 343.748 451.743 342.586 453.876C341.501 455.867 341.691 460.932 345.415 458.558C344.498 468.363 350.229 477.881 358.467 482.905C367.422 488.367 377.544 487.302 384.997 479.647C391.819 472.639 394.22 460.802 389.229 452.135C384.241 443.472 372.683 439.967 363.21 440.06Z" fill="#89C5CC" fill-opacity="0.5"/>
<path fill-rule="evenodd" clip-rule="evenodd" d="M383.826 437.432C379.424 440.658 375.405 444.906 372.067 449.215C368.804 453.427 366.647 458.686 362.727 462.358C360.748 460.202 358.429 454.379 354.48 456.689C351.203 458.606 353.313 461.903 354.909 464.067C359.03 469.657 363.606 471.906 368.891 466.384C373.691 461.369 376.417 454.679 380.905 449.375C382.873 447.048 385.915 444.738 387.482 442.169C388.903 439.84 387.146 434.992 383.826 437.432Z" fill="#89C5CC" fill-opacity="0.5"/>
</g>
<g opacity="0.5">
<path fill-rule="evenodd" clip-rule="evenodd" d="M530.81 89.5757C530.817 90.0155 530.823 90.4293 530.832 90.8096C531.038 99.114 530.918 107.844 530.244 116.129C530.011 118.99 527.93 122.615 525.556 118.672C524.512 116.938 524.658 113.378 524.766 110.759C524.795 110.056 524.821 109.422 524.821 108.908C524.818 105.986 524.972 103.034 525.126 100.073C525.427 94.286 525.729 88.4683 524.873 82.7844C524.856 82.6693 524.839 82.5587 524.823 82.4522C524.451 79.9527 524.425 79.78 521.677 79.8368C520.531 79.8606 519.385 79.8916 518.239 79.9226C517.112 79.953 515.985 79.9835 514.858 80.0071C513.739 80.0306 512.62 80.0522 511.501 80.0737C507.991 80.1412 504.48 80.2087 500.972 80.3372C500.386 80.3588 499.294 80.4958 497.915 80.6687C495.159 81.0144 491.259 81.5036 487.977 81.5008C487.977 81.5149 487.978 81.529 487.98 81.5432C487.981 81.5685 487.983 81.594 487.984 81.6198C488.021 83.4317 487.554 85.4544 487.085 87.4864C486.693 89.1882 486.298 90.8965 486.197 92.4931C485.957 96.2922 485.954 100.131 485.951 103.971C485.948 108.646 485.945 113.321 485.512 117.923C485.491 118.148 485.478 118.385 485.465 118.625C485.463 118.657 485.462 118.689 485.46 118.721C485.608 118.698 485.753 118.682 485.892 118.673C488.257 118.523 490.643 118.51 493.025 118.496C494.338 118.489 495.651 118.482 496.958 118.451C499.306 118.397 501.682 118.4 504.068 118.402C509.336 118.408 514.649 118.414 519.802 117.807C521.323 117.61 521.855 119.561 521.173 120.573C520.562 121.479 518.879 121.626 517.647 121.733C517.334 121.761 517.05 121.785 516.82 121.819C513.497 122.311 510.13 122.483 506.777 122.632C503.255 122.788 499.731 122.904 496.207 123.002C495.369 123.026 494.25 123.139 493.009 123.264C489.732 123.595 485.607 124.012 483.559 123.086C481.359 122.09 481.41 120.985 482.308 120.129C481.914 119.262 481.853 117.997 481.804 117.007C481.786 116.629 481.769 116.291 481.737 116.031C481.248 112.09 480.954 108.199 480.947 104.224C480.933 96.4377 480.949 88.3509 483.103 80.8139C482.24 80.4362 481.72 79.8794 481.722 79.0768C481.732 75.0331 494.317 75.2389 500.3 75.3367C501.369 75.3542 502.228 75.3682 502.766 75.3539C507.124 75.24 511.483 75.2252 515.842 75.2488C516.763 75.2537 517.788 75.1935 518.85 75.131C521.109 74.9982 523.535 74.8556 525.487 75.309C530.613 76.499 530.736 84.6626 530.81 89.5757Z" fill="#89C5CC" fill-opacity="0.5"/>
<path fill-rule="evenodd" clip-rule="evenodd" d="M562.87 76.1953C567.629 75.9435 572.391 75.8856 577.156 75.868C582.201 75.8426 587.253 75.9333 592.296 76.0884L592.413 76.0919C594.647 76.159 607.067 76.532 601.361 79.627C601.029 79.8076 600.654 79.9585 600.245 80.0837C600.487 81.5168 600.516 82.9965 600.477 83.7092C600.33 86.4125 600.233 89.1186 600.136 91.8247C600.07 93.6587 600.004 95.4926 599.922 97.3255C599.698 102.39 599.484 107.455 599.31 112.522C599.288 113.144 599.321 113.957 599.358 114.864C599.479 117.861 599.642 121.878 598.014 123.363C596.585 124.666 595.609 124.405 594.951 123.519C590.863 124.707 582.467 124.321 578.246 124.127C577.228 124.08 576.454 124.044 576.04 124.044C575.3 124.045 573.924 124.137 572.188 124.254C564.959 124.739 551.464 125.646 551.437 122.082C551.434 121.739 551.545 121.432 551.755 121.156C551.182 120.572 550.667 119.714 550.336 118.643C549.148 114.799 549.036 110.652 548.948 106.666C548.823 101.038 548.822 95.403 548.821 89.7695C548.82 86.8763 548.819 83.9833 548.802 81.0918C548.029 80.054 548.488 78.867 549.452 78.0389C551.505 76.2769 556.601 76.2556 560.287 76.2402C561.279 76.2361 562.169 76.2324 562.87 76.1953ZM555.126 119.593C559.713 118.614 567.442 118.929 571.582 119.098C572.667 119.142 573.505 119.176 573.977 119.174C578.206 119.158 582.436 119.217 586.662 119.386C587.1 119.403 587.748 119.387 588.512 119.367C590.047 119.329 592.047 119.278 593.746 119.467C593.723 119.236 593.708 119.026 593.699 118.844C593.508 115.082 593.646 111.288 593.782 107.515V107.515C593.811 106.713 593.84 105.912 593.866 105.113C593.957 102.292 594.077 99.4725 594.198 96.6529L594.198 96.6527L594.198 96.6513C594.274 94.8763 594.349 93.1012 594.418 91.3258C594.448 90.5467 594.403 89.4885 594.353 88.2979V88.2978C594.251 85.8755 594.125 82.9055 594.559 80.6244C592.994 80.5947 591.391 80.4838 589.92 80.3821C588.504 80.2841 587.21 80.1946 586.193 80.1945C584.903 80.1944 583.614 80.1904 582.324 80.1864H582.324H582.324H582.324C578.751 80.1754 575.178 80.1645 571.604 80.2352C571.266 80.2419 570.927 80.2485 570.587 80.255L570.587 80.255L570.587 80.255C565.667 80.3499 560.705 80.4456 555.826 81.0938C555.54 81.1319 555.197 81.2052 554.816 81.2941C555.351 83.5298 555.089 86.6806 554.86 89.4401C554.748 90.7804 554.644 92.0284 554.643 93.0343C554.636 99.2902 554.801 105.521 554.966 111.746L554.967 111.747L554.967 111.747C555.029 114.102 555.091 116.455 555.144 118.809C555.151 119.09 555.144 119.351 555.126 119.593Z" fill="#89C5CC" fill-opacity="0.5"/>
<path fill-rule="evenodd" clip-rule="evenodd" d="M502.918 122.821C499.79 124.648 501.477 131.957 502.561 134.484C504.342 138.64 507.956 141.893 511.855 144.05C519.738 148.41 531.1 147.252 537.061 154.812C537.122 154.89 539.183 156.93 539.652 154.288C540.037 152.12 536.19 148.809 534.7 147.722C530.461 144.632 525.024 143.636 520.121 142.092C514.893 140.446 509.154 137.411 506.962 132.02C506.186 130.111 507.666 120.034 502.918 122.821Z" fill="#C1DEE2" fill-opacity="0.5"/>
<path fill-rule="evenodd" clip-rule="evenodd" d="M574.414 126.335C571.548 127.125 573.443 131.069 573.439 133.044C573.433 135.507 572.646 138.085 571.127 140.051C567.277 145.037 559.738 145.784 554.086 147.213C549.982 148.252 540.163 150.478 539.779 156.029C539.35 162.227 548.019 154.684 548.751 154.375C556.853 151.403 567.336 150.829 573.589 144.287C576.171 141.586 577.697 137.982 577.939 134.262C578.076 132.167 578.099 125.328 574.414 126.335Z" fill="#C1DEE2" fill-opacity="0.5"/>
<path fill-rule="evenodd" clip-rule="evenodd" d="M515.196 181.314C515.129 169.846 526.104 162.908 536.028 160.299C547.957 157.156 559.068 165.514 560.474 177.538C561.958 190.227 552.395 200.442 539.783 201.002C528.689 201.494 515.267 193.551 515.196 181.314ZM541.842 165.813C542.487 166.69 543.069 168.09 541.769 168.852C540.519 169.581 539.895 168.705 539.266 167.823C538.869 167.266 538.47 166.707 537.911 166.549C536.461 166.141 534.13 167.666 532.922 168.555C532.432 168.916 531.734 169.693 530.919 170.602C528.323 173.493 524.532 177.715 522.437 174.082C514.081 188.511 534.913 199.31 546.759 193.849C559.769 187.852 557.237 165.927 541.842 165.813Z" fill="#89C5CC" fill-opacity="0.5"/>
<path fill-rule="evenodd" clip-rule="evenodd" d="M530.924 177.475C530.924 180.107 535.081 180.107 535.081 177.475C535.081 174.872 530.924 174.761 530.924 177.475Z" fill="#89C5CC" fill-opacity="0.5"/>
<path fill-rule="evenodd" clip-rule="evenodd" d="M538.238 176.98C538.238 180.205 543.333 180.205 543.333 176.98C543.333 173.793 538.238 173.657 538.238 176.98Z" fill="#89C5CC" fill-opacity="0.5"/>
<path fill-rule="evenodd" clip-rule="evenodd" d="M533.003 184.494C528.837 186.944 540.751 191.813 541.222 186.838C541.425 184.691 539.346 185.27 537.96 185.112C536.634 184.961 534.261 183.762 533.003 184.494Z" fill="#89C5CC" fill-opacity="0.5"/>
<path fill-rule="evenodd" clip-rule="evenodd" d="M531.197 201.879C531.378 208.138 531.291 214.393 532.478 220.565C532.704 221.737 532.86 225.989 533.787 226.86C536.066 229.002 536.103 224.896 536.192 223.323C536.508 217.688 535.916 211.877 535.786 206.23C535.758 205.014 536.08 202.497 535.506 201.32C534.596 199.452 531.108 198.898 531.197 201.879Z" fill="#C1DEE2" fill-opacity="0.5"/>
<path fill-rule="evenodd" clip-rule="evenodd" d="M526.741 196.805C517.608 207.055 505.031 206.3 492.361 207.198C485.667 207.672 478.898 208.646 473.511 212.976C471.005 214.991 468.845 217.514 467.393 220.389C466.759 221.646 463.749 228.9 468.269 227.179C469.873 226.569 471.451 221.772 472.487 220.353C474.462 217.651 476.989 215.42 480.02 213.97C485.867 211.173 492.849 211.221 499.189 210.866C505.816 210.495 512.929 210.148 519.021 207.266C521.887 205.911 524.576 204.22 526.882 202.041C527.706 201.262 529.473 199.939 529.605 198.748C529.755 197.387 528.447 194.895 526.741 196.805Z" fill="#C1DEE2" fill-opacity="0.5"/>
<path fill-rule="evenodd" clip-rule="evenodd" d="M480.634 228.268C472.055 228.554 463.487 228.901 454.919 229.444C453.164 229.555 447.31 229.2 448.801 232.798C449.996 235.681 457.135 233.774 459.496 233.634C468.424 233.104 477.388 232.92 486.296 232.117C488.297 231.937 497.343 232.009 493.608 228.462C491.831 226.774 483.089 228.184 480.634 228.268Z" fill="#89C5CC" fill-opacity="0.5"/>
<path fill-rule="evenodd" clip-rule="evenodd" d="M443.354 232.405C440.65 235.957 441.892 244.589 442.097 248.859C442.295 252.996 441.491 260.561 446.892 261.203C445.177 260.978 448.194 261.307 448.685 261.333C449.781 261.392 450.883 261.411 451.981 261.423C454.517 261.451 457.055 261.417 459.591 261.366C465.337 261.252 471.097 261.084 476.834 260.767C479.246 260.633 492.331 260.745 492.849 258.239C493.511 255.037 480.965 256.849 478.72 256.951C473.25 257.202 467.773 257.255 462.299 257.326C459.585 257.362 456.87 257.389 454.156 257.336C453.036 257.314 448.599 257.774 447.919 257.026C447.338 256.39 447.791 250.54 447.779 249.645C447.739 246.728 447.742 243.805 447.846 240.889C447.916 238.926 448.977 235.191 448.112 233.347C447.271 231.554 444.819 230.942 443.354 232.405Z" fill="#89C5CC" fill-opacity="0.5"/>
<path fill-rule="evenodd" clip-rule="evenodd" d="M487.53 232.571C487.687 239.069 487.736 245.697 489.27 252.052C489.781 254.166 490.497 258.527 492.621 259.622C494.851 260.771 496.776 259.131 496.922 256.921C497.105 254.144 495.618 250.497 495.313 247.647C494.957 244.322 494.749 240.994 494.628 237.652C494.535 235.139 495.299 231.371 492.903 229.751C490.752 228.295 487.46 229.761 487.53 232.571Z" fill="#89C5CC" fill-opacity="0.5"/>
<path fill-rule="evenodd" clip-rule="evenodd" d="M504.603 230.985C501.935 233.642 503.127 242.057 503.461 245.473C503.705 247.974 506.443 260.278 510.545 253.862C512.36 251.024 510.054 243.519 510.071 240.209C510.081 238.101 510.827 235.436 510.467 233.411C509.991 230.735 507.023 228.568 504.603 230.985Z" fill="#89C5CC" fill-opacity="0.5"/>
<path fill-rule="evenodd" clip-rule="evenodd" d="M523.077 228.791C531.092 227.964 539.116 227.344 547.174 227.267C547.561 227.264 547.968 227.259 548.39 227.254C553.914 227.184 562.214 227.078 565.93 231.226C567.956 233.485 568.873 236.978 569.673 240.023C569.822 240.59 569.967 241.143 570.114 241.669C570.24 242.118 570.404 242.63 570.581 243.184C571.415 245.798 572.545 249.335 571.4 251.524C570.772 252.725 569.76 253.749 568.226 253.324C567.867 253.224 567.586 253.097 567.366 252.947C567.954 253.583 568.214 254.49 567.833 255.376C567.094 257.09 564.763 257.127 562.925 257.155C562.48 257.162 562.064 257.169 561.707 257.199C555.588 257.709 549.441 258.049 543.3 258.103C540.377 258.128 537.453 258.104 534.529 258.081C531.519 258.056 528.509 258.031 525.5 258.061C523.316 258.082 521.091 258.29 518.866 258.498C516.056 258.76 513.245 259.022 510.513 258.91C508.469 258.826 506.286 258.157 506.804 255.515C507.226 253.358 509.256 253.17 511.076 253.001C511.234 252.987 511.391 252.972 511.545 252.956C517.337 252.367 523.133 252.158 528.955 252.179C541.186 252.221 553.407 252.158 565.638 252.094C566.14 252.135 566.614 252.328 567.004 252.62C566.564 252.086 566.572 251.374 566.581 250.617C566.585 250.274 566.589 249.921 566.552 249.572C566.478 248.869 566.409 248.169 566.341 247.47C566.115 245.161 565.89 242.869 565.45 240.547C565.383 240.196 565.319 239.81 565.251 239.402C564.851 236.991 564.321 233.796 562.403 232.494C560.476 231.185 556.696 231.248 553.749 231.297C552.954 231.31 552.22 231.322 551.599 231.306C543.738 231.103 535.831 231.662 528.005 232.373C527.405 232.428 526.803 232.48 526.2 232.533C523.223 232.792 520.23 233.053 517.296 233.585C516.759 233.683 515.938 233.969 514.998 234.298C512.494 235.171 509.138 236.342 507.997 235.052C504.218 230.779 520.823 229.024 523.077 228.791Z" fill="#89C5CC" fill-opacity="0.5"/>
<path fill-rule="evenodd" clip-rule="evenodd" d="M608.341 219.061C608.69 219.509 608.69 219.509 608.341 219.061V219.061ZM554.107 192.585C549.24 195.446 558.249 203.841 560.543 205.139C565.708 208.061 572.804 208.502 578.57 209.323C585.868 210.364 593.811 210.747 600.824 213.138C603.813 214.157 605.712 215.747 607.668 218.191C608.66 219.43 611.047 224.767 613.221 223.503C617.599 220.959 605.803 210.281 603.204 209.133C597.296 206.523 590.312 205.792 583.995 204.779C578.121 203.836 572.12 203.135 566.391 201.473C563.241 200.56 561.002 199.086 559.186 196.265C558.054 194.507 557.126 190.819 554.107 192.585Z" fill="#C1DEE2" fill-opacity="0.5"/>
<path fill-rule="evenodd" clip-rule="evenodd" d="M628.726 225.379C623.115 225.504 617.513 225.936 611.913 226.367C608.772 226.609 605.63 226.851 602.488 227.039C601.505 227.098 600.521 227.151 599.537 227.204L599.537 227.204L599.537 227.204C596.768 227.353 593.996 227.502 591.241 227.781C590.823 227.823 590.338 227.863 589.81 227.906C587.47 228.098 584.279 228.36 582.24 229.214C580.371 227.8 577.487 229.002 577.441 231.522C577.365 236.112 577.407 240.621 577.967 245.183C578.096 246.242 578.766 251.603 580.221 254.394C579.704 257.03 581.95 257.768 584.042 257.97C592.141 258.752 600.634 258.145 609.013 257.547C613.274 257.242 617.506 256.94 621.641 256.823C623.017 256.784 624.409 256.769 625.81 256.753C630.382 256.702 635.042 256.65 639.468 255.785C639.646 255.75 639.837 255.716 640.037 255.68C641.787 255.367 644.201 254.934 644.384 253.008C644.494 251.852 643.842 250.794 642.751 250.645C642.826 249.682 642.705 248.631 642.616 247.859L642.616 247.859C642.595 247.679 642.576 247.514 642.562 247.369C642.297 244.691 641.629 242.03 640.971 239.403L640.971 239.403L640.971 239.403C640.822 238.812 640.675 238.223 640.532 237.637C640.374 236.987 640.228 236.213 640.071 235.38C639.514 232.437 638.815 228.74 636.955 227.023C635.004 225.223 631.829 225.302 629.285 225.366C629.095 225.371 628.909 225.376 628.726 225.379ZM638.601 250.933C637.936 249.191 637.741 246.836 637.556 244.597V244.597C637.44 243.191 637.328 241.832 637.105 240.699C636.938 239.849 636.801 238.953 636.661 238.042L636.661 238.042C636.323 235.829 635.972 233.53 635.142 231.591C634.03 228.994 633.04 229.093 630.697 229.328C630.262 229.372 629.779 229.42 629.241 229.457C626.854 229.619 624.469 229.825 622.085 230.032L622.085 230.032C620.941 230.131 619.797 230.23 618.653 230.324C613.757 230.726 608.858 231.036 603.959 231.345L603.959 231.345C601.097 231.526 598.235 231.706 595.372 231.906C593.126 232.062 590.934 232.489 588.75 232.914C587.021 233.251 585.297 233.587 583.557 233.786C583.532 234.381 583.482 234.978 583.434 235.547C583.369 236.322 583.309 237.044 583.322 237.635C583.379 240.257 583.61 242.862 583.842 245.472C583.878 245.873 583.914 246.274 583.949 246.676C583.991 247.157 584.094 247.775 584.209 248.461C584.386 249.522 584.591 250.744 584.637 251.869C584.848 251.868 585.059 251.869 585.266 251.869C585.535 251.87 585.797 251.871 586.05 251.867C592.219 251.759 598.383 251.572 604.547 251.335C605.334 251.305 606.121 251.274 606.908 251.244C612.408 251.03 617.909 250.815 623.413 250.752C625.6 250.727 627.816 250.796 630.038 250.865C632.897 250.953 635.767 251.042 638.601 250.933Z" fill="#89C5CC" fill-opacity="0.5"/>
</g>
<g opacity="0.5">
<path fill-rule="evenodd" clip-rule="evenodd" d="M155.935 259.244C162.411 263.147 168.774 265.033 171.76 264.263C179.25 262.333 179.938 234.935 174.143 224.134C168.349 213.333 138.558 208.625 137.057 230.025C136.536 237.453 139.654 244.081 144.262 249.49L136 288H160L155.935 259.244Z" fill="#B28B67"/>
<path fill-rule="evenodd" clip-rule="evenodd" d="M142.418 254.308C139.406 240.906 130.825 231.771 132.135 225.782C133.446 219.792 139.121 218.332 139.121 218.332C139.121 218.332 142.057 206.457 158.056 208.23C174.055 210.004 183.819 216.648 179.602 231.268C175.726 231.268 171.046 229.866 164.576 232.268C161.496 233.411 160.17 239.358 160.17 239.358H157.246C157.246 239.358 152.989 232.301 148.851 234.171C144.713 236.042 146.97 243.259 146.97 243.259L145.529 254.308H142.418Z" fill="#191847"/>
<path fill-rule="evenodd" clip-rule="evenodd" d="M92.6226 413H169.877L180 537H65L92.6226 413Z" fill="#C5CFD6"/>
<path fill-rule="evenodd" clip-rule="evenodd" d="M92.6226 413H116.383L130.604 537H65L92.6226 413Z" fill="black" fill-opacity="0.1"/>
<path fill-rule="evenodd" clip-rule="evenodd" d="M212.323 437.567C203.642 455.978 190.076 500.672 190.076 500.672L201.593 505.934C201.593 505.934 230.814 458.952 248.672 426.836C247.84 434.066 246.993 442.206 246.207 450.763C244.346 471.033 246.206 514.827 247.207 527.477C247.836 535.428 258.639 533.762 259.648 527.457C259.819 526.389 260.515 522.639 261.553 517.045C266.646 489.613 279.976 417.818 280 400.238C280.009 393.165 266.19 386.81 257.953 391.756C252.295 385.719 241.587 382.24 235.436 392.212C231.525 398.552 222.233 416.55 212.323 437.567Z" fill="#B28B67"/>
<path fill-rule="evenodd" clip-rule="evenodd" d="M190.901 484.125L230.428 390.487C239.897 375.255 266.447 393.587 263.218 402.422C255.886 422.479 218.6 487.414 216.416 493.39L190.901 484.125Z" fill="#1F28CF"/>
<path fill-rule="evenodd" clip-rule="evenodd" d="M247.45 521.284C246.378 520.813 245.104 521.29 244.705 522.391C243.977 524.398 243 527.409 243 529.106C243 531.811 243.901 537 243.901 537C247.039 537 300.303 537 300.303 537C300.303 537 302.502 529.732 297.765 529.152C293.028 528.573 289.895 528.106 289.895 528.106L263.68 516.419C263.165 516.189 262.563 516.43 262.348 516.951L260.663 521.039C260.663 521.039 256.278 523.085 253.537 523.085C251.868 523.085 249.246 522.074 247.45 521.284Z" fill="#E4E4E4"/>
<path fill-rule="evenodd" clip-rule="evenodd" d="M282.77 407.433C282.77 434 270.154 495.97 270.146 501.82L243 501.841C243 501.841 248.96 418.898 247.227 418.004C245.493 417.111 176.176 424.925 155.386 424.925C125.408 424.925 113.006 406.02 112 371H171.386C183.478 372.294 246.549 385.015 269.972 389.388C280 391.261 282.77 400.115 282.77 407.433Z" fill="#2B44FF"/>
<path fill-rule="evenodd" clip-rule="evenodd" d="M112 380H189C189 380 162.837 300.208 162.27 270.472C162.251 269.461 160.384 267.68 159.559 267.913C150.5 270.472 140.172 266 140.172 266C121.917 295.358 115.605 331.505 112 380Z" fill="#F2F2F2"/>
<path fill-rule="evenodd" clip-rule="evenodd" d="M256.235 328.704L220 344.617L231.57 359.439L258.707 338.633C272.262 336.143 278.549 334.004 277.566 332.216C276.738 330.709 275.197 330.624 273.778 330.545C272.672 330.484 271.64 330.427 271.076 329.705C269.789 328.056 272.966 322.961 276.188 318.255C279.41 313.549 276.39 313.719 274.623 314.282C268.711 317.572 262.582 322.379 256.235 328.704ZM94 353.066L73.5083 349C59.6109 385.63 51.3256 405.702 48.6523 409.218C46.692 411.796 34.6026 418.437 26.4198 421.984C23.1354 423.407 23.8406 426.183 24.8039 427.071C30.8802 432.672 36.5292 430.709 42.6783 428.572C44.4585 427.953 46.2806 427.32 48.1672 426.851C53.0502 425.639 54.5361 428.15 55.9404 430.523C57.1837 432.624 58.363 434.616 61.7793 433.821C61.6239 433.151 61.433 432.4 61.227 431.589C59.8952 426.349 57.9312 418.62 60.845 414.13C62.3404 411.826 73.3921 391.471 94 353.066Z" fill="#B28B67"/>
<path fill-rule="evenodd" clip-rule="evenodd" d="M149.694 272.332L158.341 270.849C177.176 289.119 184.862 333.012 197.413 338.823C209.28 344.316 226.103 339 246.099 331.823L252.223 345.505C234.054 365.161 195.348 381.767 179.659 372.287C154.576 357.13 148.785 302.994 149.694 272.332Z" fill="#DB2721"/>
<path fill-rule="evenodd" clip-rule="evenodd" d="M112 381C112 381 164.008 381 188.511 381C192.008 381 191.349 375.952 190.843 373.404C185.011 344.004 162.241 312.312 162.241 270.461L140.172 267C121.917 296.358 115.605 332.505 112 381Z" fill="#DDE3E9"/>
<path fill-rule="evenodd" clip-rule="evenodd" d="M139 267H138.748C89.2466 297.504 59.3306 344.791 49 408.859L65.0374 412C75.6609 399.623 88.7714 379.368 104.369 351.233C99.5834 368.181 96.0896 385.563 95 402H163.872C177.205 368.305 147.486 267 147.486 267H142.731H139Z" fill="#FF4133"/>
<path fill-rule="evenodd" clip-rule="evenodd" d="M243 534L243.915 519.249C243.955 518.609 244.577 518.171 245.205 518.304C253.872 520.146 265.826 516 265.826 516C277.857 524.522 295.201 528.433 301.308 529.604C302.49 529.831 303.248 531.023 302.92 532.18L301.553 537H265.826H244.985L243 534Z" fill="#191847"/>
<path fill-rule="evenodd" clip-rule="evenodd" d="M180.149 511.186L186.638 497.907C186.919 497.331 187.662 497.164 188.191 497.527C195.494 502.544 208.125 503.287 208.125 503.287C215.98 515.763 230.509 526.011 235.704 529.43C236.709 530.091 236.953 531.482 236.207 532.426L233.101 536.357L200.091 522.689L180.836 514.717L180.149 511.186Z" fill="#191847"/>
</g>
<g opacity="0.5">
<path fill-rule="evenodd" clip-rule="evenodd" d="M688.119 320L652.954 432.495L636.413 516.958H619.812L636.384 320H688.119Z" fill="#997659"/>
<path fill-rule="evenodd" clip-rule="evenodd" d="M703.923 320C701.47 378.441 702.437 410.316 702.987 415.625C703.536 420.935 706.653 456.495 727.898 518.741H710.632C682.496 459.027 672.674 423.466 669.447 415.625C666.22 407.784 656.69 375.909 642.776 320H703.923Z" fill="#B28B67"/>
<path fill-rule="evenodd" clip-rule="evenodd" d="M688.875 320C679.728 358.71 663.907 420.501 641.413 505.372H617.132C615.338 418.26 622.968 360.925 636.18 320H688.875Z" fill="#69A1AC"/>
<path fill-rule="evenodd" clip-rule="evenodd" d="M704.046 320C701.643 378.441 707.871 436.016 727.162 506.282H701.255C673.068 447.459 652.865 390.168 639.058 320H704.046Z" fill="#89C5CC"/>
<path fill-rule="evenodd" clip-rule="evenodd" d="M730.359 530.327L729.488 517.285C729.446 516.655 728.839 516.222 728.219 516.343C719.9 517.972 708.447 514.285 708.447 514.285C696.998 521.813 680.538 525.304 674.54 526.381C673.332 526.598 672.567 527.823 672.926 528.997L674.149 533H708.447H728.454L730.359 530.327Z" fill="#191847"/>
<path fill-rule="evenodd" clip-rule="evenodd" d="M640.119 530.327L639.248 517.285C639.206 516.655 638.598 516.222 637.979 516.343C629.66 517.972 618.206 514.285 618.206 514.285C606.758 521.813 590.298 525.304 584.3 526.381C583.091 526.598 582.327 527.823 582.686 528.997L583.908 533H618.206H638.214L640.119 530.327Z" fill="#191847"/>
<path fill-rule="evenodd" clip-rule="evenodd" d="M659.327 206.562C653.137 210.015 647.055 211.683 644.2 211.002C637.041 209.295 636.383 185.058 641.922 175.503C647.461 165.948 675.937 161.784 677.373 180.715C677.871 187.285 674.89 193.149 670.485 197.934L678.383 232H655.442L659.327 206.562Z" fill="#B28B67"/>
<path fill-rule="evenodd" clip-rule="evenodd" d="M650.984 165.097C654.119 164.212 658.669 163.912 660.584 164.115C659.495 161.7 659.063 159.01 659.415 156.391C659.757 153.846 660.986 151.679 662.123 149.408C662.646 148.362 663.24 147.321 664.125 146.52C665.027 145.704 666.168 145.166 667.365 144.909C668.59 144.646 669.871 144.668 671.097 144.907C671.64 145.012 672.127 145.242 672.659 145.37C673.204 145.5 673.469 145.185 673.864 144.867C674.818 144.103 676.215 143.726 677.421 143.591C678.774 143.439 680.179 143.628 681.469 144.04C682.725 144.44 683.932 145.091 684.84 146.039C685.245 146.461 685.612 146.942 685.85 147.472C685.948 147.69 685.964 147.818 686.199 147.898C686.416 147.972 686.67 147.974 686.894 148.044C689.06 148.723 690.911 150.272 691.92 152.26C692.508 153.421 692.787 155.463 692.71 157.752C692.634 160.042 690.4 166.015 688.311 168.194C686.446 170.139 683.706 171.422 681.06 171.984C682.816 173.841 683.985 176.162 684.849 178.522C685.788 181.086 686.369 183.75 686.583 186.465C686.787 189.044 686.806 191.771 686.153 194.295C685.542 196.655 684.235 198.591 682.053 199.82C681.053 200.383 679.978 200.805 678.896 201.192C677.831 201.572 676.761 201.943 675.645 202.156C673.532 202.56 671.097 202.491 669.469 200.934C668.883 200.373 668.237 199.668 667.809 198.983C667.656 198.736 667.563 198.575 667.75 198.334C667.974 198.045 668.336 197.824 668.624 197.598C670.265 196.311 671.28 194.593 671.536 192.551C671.796 190.479 671.195 187.804 669.018 186.9C666.331 185.784 663.371 187.065 660.983 188.259C659.968 184.944 657.884 181.959 654.616 180.438C651.001 178.756 646.853 178.559 643.138 177.115C642.17 176.739 641.184 176.312 640.472 175.546C640.174 175.225 639.824 174.81 639.705 174.386C639.549 173.83 639.937 173.363 640.237 172.929C641.825 170.629 647.849 165.981 650.984 165.097Z" fill="#191847"/>
<path fill-rule="evenodd" clip-rule="evenodd" d="M561.496 210.977L597.771 221.078L588.509 235.389L560.305 219.993C547.139 219.266 540.918 218.061 541.642 216.38C542.253 214.962 543.707 214.72 545.046 214.497C546.089 214.324 547.063 214.162 547.514 213.465C548.545 211.873 544.932 207.727 541.323 203.93C537.714 200.132 540.602 199.955 542.347 200.259C548.345 202.518 554.728 206.091 561.496 210.977ZM570.449 301.194L600.976 280.401L607.725 295.874L577.494 307.502C568.945 316.817 564.164 320.701 563.152 319.152C562.299 317.846 562.966 316.624 563.58 315.498C564.058 314.62 564.505 313.802 564.176 313.048C563.425 311.326 557.682 311.507 552.24 311.896C546.798 312.284 548.384 310.038 549.696 308.929C555.251 305.844 562.169 303.266 570.449 301.194Z" fill="#B28B67"/>
<path fill-rule="evenodd" clip-rule="evenodd" d="M648.392 224.403C631.768 253.155 607.728 275.196 572.878 298.108L586.074 311.909C624.986 298.496 645.523 290.403 655.608 263.238C658.139 256.421 659.908 234.686 661.426 223.251L648.392 224.403Z" fill="#2026A2"/>
<path fill-rule="evenodd" clip-rule="evenodd" d="M694.867 320.198H621.176C621.176 320.198 646.214 249.367 646.757 222.969C646.775 222.072 648.562 220.491 649.352 220.698C658.021 222.969 667.906 219 667.906 219C685.376 245.061 691.417 277.148 694.867 320.198Z" fill="#F2F2F2"/>
<path fill-rule="evenodd" clip-rule="evenodd" d="M649.42 258.761C637.911 304.554 638.442 342.041 663.851 342.041H703.144C709.384 303.14 692.983 249.203 677.778 221.997C677.197 220.959 675.961 219 673.049 219H661.632C661.627 219.014 661.622 219.028 661.617 219.042C658.181 219.068 654.397 219.185 650.3 219.311C629.206 219.96 599.794 220.866 566.698 211.011L562.796 229.096C592.668 246.917 622.916 260.721 649.42 258.761Z" fill="#1F28CF"/>
</g>
</svg>
